<?xml version="1.0" encoding="UTF-8"?> <svg xmlns="http://www.w3.org/2000/svg" width="278" height="278" viewBox="0 0 278 278" fill="none"> <path d="M139 254.834C202.973 254.834 254.834 202.973 254.834 139C254.834 75.0273 202.973 23.167 139 23.167C75.0273 23.167 23.167 75.0273 23.167 139C23.167 202.973 75.0273 254.834 139 254.834Z" stroke="#4F4F4F" stroke-linecap="round" stroke-linejoin="round"></path> <path d="M135.875 135.875V141.125M130.625 135.875H135.875H130.625ZM141.125 135.875H135.875H141.125ZM135.875 135.875V130.625V135.875Z" stroke="#4F4F4F" stroke-linecap="round" stroke-linejoin="round"></path> <path d="M149 149L159.5 159.5" stroke="#4F4F4F" stroke-linecap="round" stroke-linejoin="round"></path> <path d="M117.5 135.875C117.5 146.023 125.727 154.25 135.875 154.25C140.958 154.25 145.559 152.186 148.885 148.851C152.2 145.527 154.25 140.94 154.25 135.875C154.25 125.727 146.023 117.5 135.875 117.5C125.727 117.5 117.5 125.727 117.5 135.875Z" stroke="#4F4F4F" stroke-linecap="round" stroke-linejoin="round"></path> </svg> 