<?xml version="1.0" encoding="UTF-8"?> <svg xmlns="http://www.w3.org/2000/svg" width="241" height="241" viewBox="0 0 241 241" fill="none"> <path d="M232.695 129.73L232.752 128.498C233.11 128.442 233.427 128.329 233.704 128.159C233.98 127.993 234.215 127.785 234.409 127.535C234.607 127.289 234.759 127.012 234.866 126.705C234.973 126.398 235.034 126.076 235.05 125.738C235.079 125.122 234.949 124.557 234.661 124.043C234.373 123.532 233.932 123.115 233.34 122.792C232.748 122.473 232.011 122.293 231.131 122.252C230.25 122.211 229.5 122.322 228.88 122.585C228.261 122.852 227.784 123.226 227.45 123.709C227.115 124.194 226.934 124.745 226.905 125.361C226.89 125.698 226.921 126.025 226.999 126.34C227.078 126.656 227.202 126.945 227.372 127.209C227.546 127.476 227.762 127.705 228.022 127.896C228.285 128.091 228.591 128.232 228.938 128.322L228.881 129.553C228.366 129.436 227.908 129.246 227.509 128.982C227.11 128.718 226.775 128.397 226.504 128.02C226.236 127.642 226.038 127.223 225.91 126.763C225.782 126.306 225.729 125.82 225.753 125.307C225.793 124.44 226.041 123.678 226.496 123.022C226.951 122.367 227.578 121.863 228.378 121.512C229.177 121.161 230.113 121.01 231.186 121.06C232.259 121.11 233.177 121.346 233.94 121.77C234.703 122.193 235.281 122.753 235.674 123.448C236.066 124.143 236.242 124.924 236.202 125.791C236.178 126.305 236.082 126.783 235.912 127.226C235.742 127.673 235.504 128.072 235.199 128.423C234.898 128.774 234.536 129.062 234.114 129.288C233.696 129.514 233.223 129.661 232.695 129.73Z" fill="white"></path> <path d="M224.607 137.836L229.73 135.035L229.908 133.795L225.282 133.131L225.458 131.911L235.536 133.357L235.361 134.577L230.991 133.95L230.915 134.482L234.706 139.144L234.497 140.601L230.652 135.89L224.398 139.292L224.607 137.836Z" fill="white"></path> <path d="M223.898 141.829L224.198 140.572L233.234 146.572L232.939 147.81L222.167 149.083L222.467 147.826L231.511 146.856L231.529 146.778L223.898 141.829ZM227.656 143.217L226.447 148.285L225.383 148.031L226.592 142.963L227.656 143.217Z" fill="white"></path> <path d="M231.338 153.982L230.94 155.149L227.721 154.051C227.245 153.888 226.841 153.843 226.512 153.917C226.185 153.991 225.914 154.161 225.697 154.426C225.483 154.693 225.306 155.034 225.164 155.448C225.076 155.708 224.999 155.964 224.934 156.215C224.873 156.467 224.821 156.716 224.779 156.96C224.737 157.209 224.704 157.453 224.681 157.694C224.658 157.938 224.642 158.18 224.634 158.418L223.58 158.059C223.586 157.826 223.597 157.597 223.615 157.372C223.631 157.15 223.658 156.921 223.697 156.685C223.734 156.453 223.785 156.206 223.85 155.944C223.918 155.684 224.005 155.398 224.111 155.088C224.337 154.423 224.629 153.883 224.984 153.469C225.338 153.057 225.772 152.795 226.286 152.684C226.8 152.575 227.411 152.642 228.12 152.884L231.338 153.982ZM229.334 159.854L228.936 161.021L219.3 157.733L219.698 156.566L229.334 159.854Z" fill="white"></path> <path d="M218.085 160.797L218.615 159.618L226.368 167.203L225.846 168.364L215.027 167.598L215.557 166.419L224.622 167.159L224.654 167.087L218.085 160.797ZM221.516 162.863L219.38 167.615L218.382 167.167L220.519 162.415L221.516 162.863Z" fill="white"></path> <path d="M222.344 173.205L223.298 173.74L219.56 180.399L218.607 179.864L220.174 177.072L212.249 172.624L212.852 171.548L220.777 175.997L222.344 173.205Z" fill="white"></path> <path d="M214.292 180.705L212.663 183.108C212.253 183.712 211.809 184.154 211.331 184.434C210.851 184.717 210.358 184.843 209.854 184.814C209.348 184.787 208.85 184.608 208.362 184.276C207.874 183.945 207.517 183.545 207.291 183.075C207.063 182.608 206.985 182.095 207.056 181.534C207.126 180.977 207.365 180.396 207.775 179.793L209.918 176.633L218.344 182.348L217.652 183.369L210.114 178.256L208.663 180.396C208.403 180.78 208.259 181.157 208.232 181.527C208.206 181.902 208.269 182.241 208.42 182.544C208.572 182.851 208.785 183.098 209.059 183.284C209.463 183.557 209.915 183.637 210.416 183.525C210.92 183.414 211.367 183.07 211.757 182.494L213.387 180.091L214.292 180.705Z" fill="white"></path> <path d="M202.055 187.533L209.686 194.274L205.617 198.879L204.798 198.155L208.05 194.474L205.665 192.367L203.954 194.305C203.471 194.851 202.974 195.233 202.464 195.45C201.952 195.669 201.447 195.732 200.951 195.638C200.452 195.547 199.982 195.306 199.539 194.916C199.097 194.525 198.794 194.082 198.63 193.588C198.463 193.096 198.451 192.576 198.593 192.03C198.733 191.486 199.045 190.94 199.527 190.394L202.055 187.533ZM202.044 189.168L200.332 191.105C200.025 191.453 199.835 191.809 199.761 192.172C199.687 192.541 199.706 192.885 199.818 193.204C199.929 193.529 200.109 193.8 200.358 194.02C200.723 194.342 201.161 194.48 201.672 194.432C202.186 194.386 202.673 194.102 203.134 193.58L204.846 191.643L202.044 189.168Z" fill="white"></path> <path d="M195.66 194.598L202.701 201.953L200.216 204.332C199.639 204.884 199.068 205.231 198.502 205.374C197.936 205.521 197.396 205.503 196.882 205.321C196.368 205.139 195.903 204.831 195.489 204.397C195.074 203.964 194.785 203.485 194.623 202.961C194.459 202.44 194.459 201.898 194.624 201.337C194.79 200.778 195.16 200.225 195.732 199.677L197.513 197.972L198.27 198.762L196.517 200.439C196.122 200.818 195.87 201.189 195.762 201.555C195.653 201.921 195.656 202.271 195.77 202.607C195.885 202.947 196.083 203.264 196.365 203.559C196.647 203.853 196.954 204.064 197.286 204.19C197.616 204.32 197.965 204.334 198.333 204.234C198.703 204.137 199.088 203.897 199.488 203.514L201.054 202.015L194.769 195.45L195.66 194.598Z" fill="white"></path> <path d="M185.865 209.826C185.196 208.986 184.769 208.139 184.585 207.286C184.401 206.433 184.442 205.629 184.706 204.876C184.971 204.123 185.442 203.476 186.122 202.935C186.801 202.394 187.537 202.079 188.33 201.989C189.123 201.9 189.915 202.04 190.706 202.41C191.497 202.78 192.227 203.386 192.896 204.225C193.565 205.065 193.991 205.912 194.175 206.766C194.359 207.619 194.319 208.422 194.055 209.175C193.79 209.928 193.318 210.576 192.639 211.117C191.96 211.658 191.224 211.973 190.431 212.062C189.637 212.152 188.845 212.011 188.055 211.641C187.264 211.271 186.534 210.666 185.865 209.826ZM186.798 209.083C187.348 209.772 187.927 210.262 188.535 210.553C189.141 210.846 189.737 210.958 190.323 210.89C190.906 210.824 191.438 210.599 191.92 210.214C192.403 209.83 192.742 209.36 192.94 208.805C193.134 208.252 193.158 207.646 193.011 206.987C192.861 206.331 192.512 205.658 191.962 204.969C191.413 204.279 190.835 203.788 190.229 203.496C189.621 203.205 189.025 203.093 188.442 203.159C187.856 203.227 187.322 203.453 186.84 203.837C186.358 204.221 186.02 204.69 185.825 205.243C185.628 205.799 185.604 206.405 185.754 207.061C185.901 207.719 186.249 208.393 186.798 209.083Z" fill="white"></path> <path d="M186.607 215.613L185.562 216.267L180.761 208.597L177.727 210.497L182.528 218.166L181.483 218.821L176.682 211.151L173.648 213.05L178.449 220.72L177.404 221.374L172.001 212.744L181.205 206.982L186.607 215.613Z" fill="white"></path> <path d="M172.953 223.74L168.709 214.485L169.83 213.971L174.074 223.226L172.953 223.74ZM169.002 220.455L168.546 219.461L171.379 218.161L171.835 219.156L169.002 220.455ZM160.961 223.639C160.514 222.663 160.303 221.738 160.33 220.866C160.356 219.993 160.588 219.223 161.026 218.556C161.464 217.888 162.077 217.373 162.866 217.011C163.656 216.649 164.446 216.52 165.238 216.624C166.029 216.728 166.764 217.054 167.443 217.604C168.121 218.153 168.684 218.916 169.132 219.892C169.579 220.868 169.79 221.793 169.764 222.665C169.737 223.538 169.505 224.308 169.067 224.975C168.63 225.643 168.016 226.158 167.227 226.519C166.437 226.881 165.647 227.011 164.856 226.907C164.064 226.803 163.329 226.476 162.651 225.927C161.972 225.378 161.409 224.615 160.961 223.639ZM162.046 223.141C162.413 223.943 162.858 224.558 163.379 224.986C163.897 225.416 164.448 225.668 165.033 225.743C165.614 225.819 166.186 225.728 166.746 225.471C167.306 225.214 167.749 224.84 168.074 224.348C168.396 223.857 168.565 223.275 168.58 222.601C168.592 221.928 168.415 221.191 168.047 220.389C167.68 219.588 167.237 218.972 166.719 218.543C166.198 218.114 165.647 217.862 165.065 217.786C164.48 217.712 163.908 217.803 163.347 218.06C162.787 218.317 162.346 218.69 162.024 219.181C161.699 219.673 161.53 220.255 161.518 220.928C161.502 221.602 161.678 222.34 162.046 223.141Z" fill="white"></path> <path d="M156.558 219.732L159.738 229.405L156.469 230.479C155.71 230.729 155.045 230.796 154.473 230.68C153.899 230.569 153.42 230.32 153.035 229.934C152.65 229.547 152.363 229.069 152.176 228.499C151.989 227.929 151.935 227.373 152.015 226.831C152.091 226.289 152.325 225.8 152.716 225.365C153.107 224.933 153.68 224.593 154.432 224.346L156.775 223.576L157.116 224.615L154.811 225.372C154.292 225.543 153.904 225.77 153.648 226.053C153.392 226.336 153.244 226.653 153.203 227.005C153.159 227.361 153.201 227.733 153.328 228.12C153.456 228.508 153.642 228.83 153.887 229.088C154.129 229.347 154.438 229.511 154.813 229.579C155.189 229.651 155.64 229.601 156.166 229.428L158.225 228.751L155.387 220.117L156.558 219.732Z" fill="white"></path> <path d="M147.808 222.318L148.08 223.438L147.462 223.588C147.223 223.646 147.035 223.741 146.897 223.874C146.755 224.007 146.649 224.161 146.579 224.335C146.505 224.51 146.452 224.686 146.421 224.864L146.355 225.269L151.614 232.015L150.319 232.329L146.103 226.844L145.101 233.595L143.826 233.904L145.235 224.784C145.295 224.442 145.38 224.117 145.49 223.811C145.596 223.506 145.778 223.236 146.036 223.003C146.29 222.771 146.668 222.594 147.17 222.472L147.808 222.318Z" fill="white"></path> <path d="M132.094 224.696L131.259 224.783L131.9 228.77L130.14 225.125L129.42 225.51L131.528 228.978L128.513 226.253L127.992 226.926L131.251 229.288L127.45 227.94L127.197 228.755L131.152 229.693L127.094 229.92L127.181 230.755L131.196 230.111L127.523 231.874L127.936 232.591L131.376 230.486L128.678 233.499L129.324 234.022L131.714 230.76L130.366 234.561L131.153 234.817L132.122 230.887L132.318 234.92L133.153 234.833L132.536 230.815L134.272 234.491L135.017 234.075L132.912 230.635L135.896 233.336L136.448 232.687L133.158 230.3L136.987 231.645L137.214 230.861L133.285 229.892L137.318 229.696L137.231 228.861L133.241 229.475L136.889 227.742L136.501 226.995L133.033 229.102L135.761 226.115L135.085 225.566L132.726 228.853L134.071 225.024L133.259 224.8L132.318 228.727L132.094 224.696Z" fill="white"></path> <path d="M112.17 232.779L113.402 232.822C113.462 233.179 113.579 233.494 113.752 233.769C113.922 234.044 114.132 234.276 114.384 234.468C114.633 234.662 114.911 234.811 115.22 234.914C115.528 235.018 115.851 235.076 116.189 235.087C116.805 235.109 117.368 234.973 117.879 234.679C118.387 234.384 118.799 233.939 119.114 233.343C119.427 232.747 119.599 232.009 119.629 231.128C119.66 230.247 119.54 229.498 119.27 228.882C118.996 228.265 118.616 227.793 118.13 227.464C117.641 227.135 117.088 226.96 116.472 226.939C116.134 226.927 115.808 226.962 115.493 227.044C115.178 227.126 114.89 227.254 114.629 227.427C114.364 227.604 114.138 227.823 113.95 228.085C113.758 228.35 113.62 228.657 113.535 229.006L112.302 228.963C112.413 228.446 112.598 227.987 112.858 227.584C113.117 227.182 113.434 226.843 113.808 226.568C114.183 226.296 114.599 226.093 115.058 225.96C115.514 225.826 115.998 225.768 116.512 225.786C117.38 225.816 118.144 226.055 118.805 226.503C119.466 226.95 119.977 227.571 120.337 228.367C120.697 229.162 120.859 230.096 120.822 231.169C120.784 232.242 120.558 233.163 120.144 233.931C119.729 234.7 119.176 235.284 118.486 235.685C117.795 236.085 117.016 236.27 116.148 236.24C115.635 236.222 115.156 236.131 114.71 235.966C114.262 235.801 113.86 235.569 113.506 235.268C113.151 234.97 112.859 234.612 112.628 234.193C112.397 233.777 112.244 233.305 112.17 232.779Z" fill="white"></path> <path d="M104.16 224.771L107.02 229.862L108.262 230.025L108.872 225.392L110.095 225.553L108.765 235.648L107.542 235.487L108.119 231.11L107.587 231.039L102.968 234.884L101.509 234.692L106.175 230.793L102.701 224.579L104.16 224.771Z" fill="white"></path> <path d="M100.241 224.108L101.502 224.394L95.6059 233.498L94.3646 233.217L92.9684 222.461L94.229 222.746L95.3024 231.778L95.38 231.795L100.241 224.108ZM98.897 227.882L93.8156 226.731L94.0573 225.664L99.1387 226.815L98.897 227.882Z" fill="white"></path> <path d="M88.1077 231.655L86.9364 231.27L87.9983 228.039C88.1557 227.56 88.1959 227.157 88.1191 226.828C88.0412 226.502 87.8682 226.233 87.6 226.019C87.3308 225.808 86.9884 225.635 86.5728 225.498C86.3115 225.412 86.0549 225.338 85.8031 225.276C85.5503 225.218 85.3011 225.169 85.0557 225.13C84.8071 225.09 84.5623 225.061 84.3211 225.041C84.0768 225.02 83.8352 225.006 83.5962 225.001L83.944 223.943C84.1767 223.946 84.4057 223.955 84.6311 223.97C84.8534 223.984 85.0825 224.009 85.3185 224.044C85.5513 224.079 85.7988 224.127 86.0611 224.189C86.3224 224.254 86.6089 224.338 86.9206 224.44C87.5881 224.66 88.1311 224.945 88.5498 225.295C88.9652 225.644 89.2317 226.076 89.3491 226.589C89.4634 227.101 89.4035 227.713 89.1696 228.424L88.1077 231.655ZM82.2135 229.717L81.0422 229.332L84.2217 219.659L85.393 220.044L82.2135 229.717Z" fill="white"></path> <path d="M81.0441 218.433L82.2269 218.954L74.6999 226.763L73.5352 226.25L74.2199 215.425L75.4028 215.947L74.7307 225.017L74.8035 225.049L81.0441 218.433ZM79.0035 221.88L74.2357 219.779L74.6767 218.778L79.4445 220.879L79.0035 221.88Z" fill="white"></path> <path d="M68.8526 222.882L68.3279 223.842L61.6278 220.178L62.1526 219.219L64.9617 220.755L69.322 212.781L70.4038 213.373L66.0435 221.346L68.8526 222.882Z" fill="white"></path> <path d="M61.2389 214.89L58.8183 213.287C58.2104 212.884 57.7637 212.445 57.4782 211.97C57.19 211.492 57.058 211.001 57.0822 210.497C57.1036 209.99 57.2773 209.491 57.603 208.999C57.9288 208.507 58.3253 208.146 58.7925 207.914C59.2569 207.681 59.7696 207.598 60.3306 207.663C60.8888 207.727 61.4718 207.96 62.0797 208.362L65.263 210.471L59.6406 218.96L58.6127 218.279L63.6421 210.685L61.4867 209.258C61.0999 209.001 60.7212 208.862 60.3507 208.839C59.9755 208.817 59.6375 208.884 59.3364 209.038C59.0308 209.193 58.7864 209.409 58.6034 209.686C58.3344 210.092 58.259 210.545 58.3772 211.044C58.4936 211.547 58.842 211.99 59.4223 212.375L61.8429 213.978L61.2389 214.89Z" fill="white"></path> <path d="M54.3319 202.757L47.6741 210.461L43.025 206.443L43.7401 205.615L47.4565 208.827L49.537 206.42L47.5811 204.729C47.0294 204.252 46.6422 203.76 46.4196 203.252C46.1945 202.742 46.1261 202.238 46.2144 201.741C46.3002 201.241 46.536 200.768 46.9217 200.322C47.3075 199.875 47.7468 199.567 48.2397 199.398C48.73 199.226 49.2492 199.208 49.7972 199.344C50.3428 199.478 50.8914 199.784 51.4431 200.26L54.3319 202.757ZM52.6968 202.763L50.7409 201.073C50.3898 200.77 50.032 200.583 49.6674 200.513C49.2981 200.444 48.9543 200.466 48.636 200.581C48.3131 200.696 48.0433 200.879 47.8265 201.13C47.508 201.499 47.3755 201.938 47.4291 202.449C47.4806 202.962 47.7696 203.446 48.2962 203.902L50.2522 205.592L52.6968 202.763Z" fill="white"></path> <path d="M47.2111 196.448L39.9334 203.569L37.5274 201.109C36.9687 200.539 36.6151 199.971 36.4666 199.407C36.3134 198.843 36.3251 198.303 36.5018 197.787C36.6786 197.27 36.9813 196.803 37.4101 196.383C37.8389 195.964 38.3144 195.67 38.8365 195.502C39.3564 195.332 39.8978 195.326 40.461 195.485C41.0217 195.646 41.5791 196.009 42.1331 196.575L43.8576 198.338L43.0758 199.103L41.3791 197.369C40.9966 196.978 40.622 196.73 40.2552 196.625C39.8883 196.52 39.5379 196.527 39.2038 196.645C38.865 196.763 38.5499 196.965 38.2585 197.25C37.9671 197.535 37.7598 197.845 37.6366 198.179C37.5112 198.51 37.5003 198.859 37.6041 199.226C37.7056 199.595 37.9499 199.977 38.3369 200.373L39.8529 201.922L46.3488 195.567L47.2111 196.448Z" fill="white"></path> <path d="M31.8935 186.836C32.7261 186.158 33.5681 185.722 34.4194 185.529C35.2708 185.335 36.0745 185.367 36.8304 185.623C37.5864 185.879 38.2386 186.344 38.787 187.017C39.3355 187.69 39.6587 188.423 39.7569 189.215C39.855 190.008 39.7233 190.801 39.3617 191.596C39.0002 192.39 38.4032 193.127 37.5706 193.805C36.738 194.483 35.896 194.919 35.0447 195.112C34.1933 195.306 33.3897 195.274 32.6337 195.018C31.8777 194.762 31.2255 194.297 30.6771 193.624C30.1287 192.95 29.8054 192.218 29.7073 191.426C29.6091 190.633 29.7408 189.84 30.1024 189.045C30.4639 188.251 31.061 187.514 31.8935 186.836ZM32.6471 187.761C31.9636 188.318 31.4798 188.902 31.1959 189.514C30.9099 190.123 30.8041 190.72 30.8786 191.305C30.9511 191.887 31.182 192.417 31.5714 192.895C31.9607 193.373 32.4342 193.708 32.9918 193.899C33.5474 194.088 34.1534 194.105 34.81 193.951C35.4645 193.794 36.1335 193.437 36.817 192.88C37.5005 192.323 37.9853 191.74 38.2714 191.131C38.5553 190.519 38.6611 189.922 38.5886 189.34C38.5141 188.755 38.2821 188.224 37.8928 187.746C37.5034 187.268 37.031 186.934 36.4754 186.746C35.9178 186.554 35.3117 186.537 34.6573 186.694C34.0007 186.849 33.3307 187.204 32.6471 187.761Z" fill="white"></path> <path d="M26.1247 187.654L25.459 186.617L33.0752 181.731L31.1425 178.718L23.5264 183.604L22.8607 182.566L30.4769 177.681L28.5442 174.668L20.9281 179.553L20.2624 178.515L28.8327 173.018L34.695 182.157L26.1247 187.654Z" fill="white"></path> <path d="M17.7853 174.003L27.0085 169.69L27.5308 170.807L18.3075 175.12L17.7853 174.003ZM21.0412 170.028L22.032 169.564L23.3524 172.388L22.3616 172.851L21.0412 170.028ZM17.7975 162.011C18.7703 161.556 19.6931 161.339 20.5659 161.359C21.4387 161.379 22.2105 161.605 22.8812 162.038C23.5519 162.471 24.0711 163.08 24.439 163.867C24.8068 164.654 24.9418 165.443 24.8439 166.235C24.746 167.027 24.4249 167.765 23.8806 168.447C23.3363 169.13 22.5778 169.699 21.605 170.154C20.6323 170.608 19.7095 170.826 18.8367 170.806C17.9638 170.786 17.1921 170.56 16.5214 170.127C15.8507 169.694 15.3314 169.084 14.9636 168.298C14.5957 167.511 14.4608 166.722 14.5586 165.93C14.6565 165.137 14.9776 164.4 15.5219 163.717C16.0662 163.035 16.8247 162.466 17.7975 162.011ZM18.3029 163.092C17.5043 163.466 16.8927 163.914 16.4683 164.438C16.0424 164.96 15.7943 165.513 15.7241 166.098C15.6525 166.68 15.7472 167.251 16.0084 167.809C16.2695 168.368 16.6472 168.808 17.1414 169.129C17.6342 169.447 18.2178 169.612 18.8922 169.622C19.5652 169.629 20.301 169.446 21.0996 169.073C21.8982 168.699 22.5105 168.252 22.9364 167.731C23.3608 167.207 23.6089 166.653 23.6805 166.071C23.7508 165.486 23.6553 164.914 23.3942 164.356C23.133 163.797 22.756 163.359 22.2632 163.04C21.769 162.719 21.1854 162.555 20.5124 162.547C19.8381 162.537 19.1016 162.719 18.3029 163.092Z" fill="white"></path> <path d="M21.6742 157.656L12.0382 160.945L10.927 157.689C10.669 156.933 10.5945 156.268 10.7036 155.695C10.8085 155.12 11.0519 154.638 11.4338 154.248C11.8157 153.859 12.2905 153.567 12.8582 153.374C13.426 153.18 13.9816 153.12 14.525 153.193C15.0674 153.264 15.5585 153.492 15.9984 153.878C16.4351 154.265 16.7813 154.833 17.0372 155.583L17.8337 157.916L16.7985 158.27L16.0149 155.973C15.8383 155.456 15.607 155.071 15.3212 154.818C15.0353 154.565 14.7162 154.421 14.3637 154.383C14.0071 154.344 13.6359 154.39 13.25 154.522C12.8642 154.653 12.5438 154.843 12.2888 155.091C12.0327 155.336 11.8725 155.647 11.8081 156.022C11.7405 156.399 11.7961 156.849 11.9749 157.373L12.6751 159.425L21.276 156.489L21.6742 157.656Z" fill="white"></path> <path d="M19.0449 149.147L17.9272 149.432L17.7701 148.815C17.7095 148.578 17.6122 148.39 17.4782 148.253C17.3433 148.113 17.1885 148.009 17.0138 147.941C16.8382 147.869 16.6611 147.819 16.4825 147.789L16.0771 147.728L9.3919 153.063L9.06297 151.772L14.4989 147.494L7.73743 146.569L7.41341 145.297L16.5496 146.602C16.8923 146.658 17.2174 146.74 17.5249 146.846C17.8317 146.949 18.103 147.128 18.3388 147.383C18.5739 147.634 18.7552 148.01 18.8829 148.511L19.0449 149.147Z" fill="white"></path> <path d="M16.4458 133.32L16.3489 132.486L12.3697 133.173L15.994 131.371L15.6008 130.656L12.1576 132.803L14.848 129.757L14.1683 129.244L11.8439 132.53L13.1484 128.714L12.3308 128.47L11.4384 132.436L11.1646 128.38L10.3303 128.477L11.0212 132.484L9.21576 128.832L8.50358 129.253L10.6479 132.669L7.60442 130.006L7.08819 130.658L10.3775 133.01L6.56155 131.706L6.31502 132.495L10.2559 133.419L6.22496 133.662L6.32188 134.496L10.3322 133.833L6.67683 135.61L7.10104 136.35L10.5164 134.206L7.85057 137.222L8.50571 137.766L10.8547 134.449L9.55347 138.293L10.34 138.511L11.2635 134.57L11.5061 138.601L12.3405 138.504L11.6807 134.522L13.455 138.149L14.1982 137.753L12.0507 134.31L15.0696 137.004L15.6104 136.321L12.2965 133.999L16.1403 135.301L16.3558 134.486L12.4181 133.591L16.4458 133.32Z" fill="white"></path> <path d="M8.14772 113.483L8.11441 114.716C7.75793 114.779 7.44304 114.898 7.16975 115.073C6.89655 115.245 6.66534 115.457 6.47613 115.711C6.2837 115.961 6.13689 116.241 6.03571 116.55C5.93452 116.858 5.87936 117.182 5.87023 117.52C5.85357 118.136 5.99421 118.699 6.29213 119.207C6.59014 119.713 7.03831 120.121 7.63666 120.432C8.23509 120.74 8.97496 120.906 9.85627 120.93C10.7376 120.954 11.4853 120.828 12.0995 120.553C12.7138 120.274 13.1834 119.891 13.5082 119.402C13.8332 118.91 14.004 118.356 14.0207 117.74C14.0298 117.402 13.9922 117.076 13.9078 116.762C13.8235 116.448 13.6936 116.161 13.5183 115.901C13.3398 115.638 13.1187 115.413 12.8552 115.227C12.5884 115.037 12.2804 114.901 11.9312 114.819L11.9645 113.586C12.4822 113.693 12.9431 113.875 13.3473 114.131C13.7515 114.387 14.0928 114.702 14.3712 115.074C14.6463 115.446 14.8523 115.861 14.9891 116.319C15.126 116.774 15.1875 117.258 15.1737 117.771C15.1502 118.639 14.9173 119.406 14.4749 120.07C14.0326 120.734 13.4152 121.25 12.6228 121.616C11.8304 121.983 10.8975 122.152 9.82403 122.123C8.75056 122.094 7.82811 121.875 7.05667 121.466C6.28524 121.057 5.69661 120.509 5.29079 119.822C4.88496 119.134 4.69378 118.357 4.71724 117.489C4.73112 116.975 4.81869 116.495 4.97996 116.049C5.14132 115.599 5.37105 115.195 5.66915 114.839C5.96393 114.482 6.32005 114.187 6.73751 113.952C7.15166 113.718 7.62173 113.562 8.14772 113.483Z" fill="white"></path> <path d="M16.0173 105.624L10.9602 108.542L10.8108 109.786L15.4508 110.343L15.3039 111.567L5.19463 110.353L5.34159 109.129L9.72489 109.655L9.78889 109.122L5.89149 104.548L6.06689 103.087L10.0188 107.708L16.1927 104.163L16.0173 105.624Z" fill="white"></path> <path d="M16.6367 101.571L16.3655 102.835L7.19476 97.0433L7.4618 95.7989L18.2014 94.2797L17.9302 95.5435L8.91156 96.7201L8.89488 96.7979L16.6367 101.571ZM12.8481 100.27L13.9413 95.1757L15.0107 95.4052L13.9175 100.499L12.8481 100.27Z" fill="white"></path> <path d="M8.89806 89.6444L9.2698 88.4688L12.5121 89.4941C12.9925 89.646 13.3966 89.6817 13.7245 89.6011C14.0492 89.5196 14.3169 89.3435 14.5276 89.073C14.7352 88.8014 14.9049 88.4571 15.0368 88.0399C15.1197 87.7776 15.1907 87.5202 15.2497 87.2677C15.3055 87.0143 15.3514 86.7646 15.3875 86.5187C15.4245 86.2697 15.4516 86.0246 15.4688 85.7832C15.4871 85.5387 15.4975 85.2969 15.5001 85.0579L16.5619 85.3936C16.5613 85.6264 16.5549 85.8555 16.5426 86.081C16.5314 86.3034 16.5093 86.5328 16.4763 86.7692C16.4442 87.0024 16.3988 87.2505 16.34 87.5134C16.278 87.7754 16.1975 88.0628 16.0986 88.3757C15.8868 89.0456 15.608 89.5919 15.2623 90.0144C14.9177 90.4338 14.4895 90.7051 13.9778 90.8284C13.467 90.9484 12.8546 90.8955 12.1404 90.6697L8.89806 89.6444ZM10.7687 83.7286L11.1405 82.553L20.8485 85.6229L20.4768 86.7984L10.7687 83.7286Z" fill="white"></path> <path d="M22.1111 82.1892L21.6031 83.3778L13.7098 75.9387L14.2099 74.7683L25.0418 75.3318L24.5338 76.5205L15.4567 75.95L15.4254 76.0231L22.1111 82.1892ZM18.6414 80.1873L20.689 75.3963L21.6947 75.8261L19.6472 80.6172L18.6414 80.1873Z" fill="white"></path> <path d="M17.4541 70.17L16.4887 69.6559L20.078 62.9157L21.0434 63.4298L19.5385 66.2558L27.5601 70.5274L26.9806 71.6156L18.959 67.344L17.4541 70.17Z" fill="white"></path> <path d="M25.2305 62.6382L26.8071 60.2001C27.203 59.5878 27.637 59.1363 28.1092 58.8456C28.5831 58.5522 29.0726 58.4148 29.5776 58.4334C30.0843 58.4493 30.5854 58.6174 31.0808 58.9378C31.5763 59.2581 31.9421 59.6506 32.1785 60.1153C32.4166 60.5771 32.5061 61.0888 32.4468 61.6505C32.3894 62.2093 32.1627 62.7949 31.7668 63.4072L29.6935 66.6135L21.1435 61.0848L21.8129 60.0494L29.4612 64.995L30.865 62.8241C31.1169 62.4344 31.2523 62.0542 31.271 61.6835C31.2887 61.3081 31.2187 60.9708 31.061 60.6715C30.9023 60.3676 30.6838 60.1256 30.4055 59.9456C29.9963 59.6811 29.5426 59.6107 29.0442 59.7344C28.543 59.8564 28.1035 60.2096 27.7255 60.794L26.149 63.2321L25.2305 62.6382Z" fill="white"></path> <path d="M37.3897 55.3927L29.614 48.8195L33.581 44.1267L34.4163 44.8328L31.2452 48.584L33.6751 50.6381L35.3441 48.6638C35.8149 48.107 36.3029 47.7145 36.8083 47.4863C37.3157 47.2557 37.8187 47.1818 38.3172 47.2646C38.8178 47.345 39.2934 47.5756 39.744 47.9565C40.1945 48.3373 40.5074 48.7733 40.6826 49.2642C40.8599 49.7527 40.8834 50.2716 40.7531 50.8211C40.6249 51.3681 40.3254 51.92 39.8547 52.4768L37.3897 55.3927ZM37.3656 53.7579L39.0346 51.7836C39.3341 51.4292 39.5168 51.0694 39.5826 50.704C39.648 50.334 39.6216 49.9905 39.5033 49.6735C39.3846 49.3518 39.1987 49.084 38.9456 48.87C38.5735 48.5555 38.1325 48.4278 37.6224 48.487C37.1097 48.5441 36.6288 48.8384 36.1794 49.37L34.5104 51.3443L37.3656 53.7579Z" fill="white"></path> <path d="M43.4006 48.3991L36.201 41.1995L38.6337 38.7668C39.1985 38.202 39.7621 37.8422 40.3246 37.6876C40.8871 37.5282 41.4273 37.5341 41.9452 37.7051C42.4631 37.8762 42.9342 38.1739 43.3584 38.5981C43.7826 39.0223 44.0814 39.4945 44.2549 40.0148C44.4306 40.5327 44.4423 41.0741 44.29 41.6389C44.1353 42.2014 43.7779 42.7627 43.2178 43.3228L41.4741 45.0665L40.7007 44.2931L42.4163 42.5775C42.803 42.1908 43.0467 41.8135 43.1475 41.4456C43.2483 41.0776 43.2377 40.7273 43.1158 40.3945C42.994 40.057 42.7889 39.7441 42.5006 39.4558C42.2124 39.1676 41.9007 38.9637 41.5655 38.8441C41.2327 38.7223 40.8835 38.7152 40.5179 38.8231C40.15 38.9285 39.7703 39.1769 39.3789 39.5683L37.8462 41.1011L44.2724 47.5273L43.4006 48.3991Z" fill="white"></path> <path d="M52.9237 32.8536C53.611 33.6787 54.056 34.5158 54.2586 35.365C54.4613 36.2142 54.4386 37.0182 54.1906 37.7769C53.9426 38.5356 53.485 39.1928 52.8178 39.7486C52.1505 40.3044 51.4214 40.6356 50.6304 40.7424C49.8393 40.8492 49.0445 40.7261 48.2459 40.3733C47.4474 40.0205 46.7044 39.4315 46.0171 38.6064C45.3299 37.7813 44.8849 36.9441 44.6822 36.0949C44.4796 35.2457 44.5022 34.4418 44.7502 33.683C44.9982 32.9243 45.4559 32.2671 46.1231 31.7113C46.7903 31.1556 47.5194 30.8243 48.3105 30.7175C49.1015 30.6108 49.8963 30.7338 50.6949 31.0866C51.4935 31.4395 52.2364 32.0284 52.9237 32.8536ZM52.0069 33.6172C51.4426 32.9398 50.8531 32.4625 50.2383 32.1852C49.626 31.9058 49.0278 31.8066 48.4439 31.8875C47.8625 31.9663 47.335 32.203 46.8613 32.5976C46.3876 32.9921 46.0582 33.4692 45.873 34.0289C45.6904 34.5865 45.6799 35.1927 45.8414 35.8476C46.0055 36.5003 46.3697 37.1653 46.9339 37.8427C47.4982 38.5201 48.0865 38.9985 48.6988 39.2779C49.3136 39.5552 49.9117 39.6544 50.4931 39.5756C51.0771 39.4947 51.6059 39.2569 52.0796 38.8624C52.5532 38.4678 52.8814 37.9918 53.064 37.4342C53.2491 36.8745 53.2597 36.2683 53.0956 35.6156C52.934 34.9607 52.5712 34.2946 52.0069 33.6172Z" fill="white"></path> <path d="M52.0767 27.024L53.1071 26.347L58.0759 33.9089L61.0674 31.9433L56.0987 24.3813L57.1291 23.7042L62.0978 31.2662L65.0894 29.3005L60.1206 21.7386L61.1511 21.0615L66.7423 29.5708L57.6679 35.5333L52.0767 27.024Z" fill="white"></path> <path d="M65.7951 18.4175L70.2107 27.5921L69.0997 28.1268L64.6842 18.9522L65.7951 18.4175ZM69.807 21.6289L70.2813 22.6145L67.4725 23.9663L66.9982 22.9808L69.807 21.6289ZM77.7867 18.2961C78.2524 19.2637 78.4802 20.184 78.4699 21.057C78.4597 21.93 78.242 22.7042 77.8167 23.3797C77.3915 24.0552 76.7876 24.5813 76.0051 24.9578C75.2227 25.3344 74.4348 25.4782 73.6416 25.3891C72.8484 25.3001 72.1074 24.9872 71.4188 24.4506C70.7302 23.9139 70.153 23.1618 69.6873 22.1942C69.2216 21.2265 68.9938 20.3062 69.0041 19.4332C69.0143 18.5602 69.232 17.786 69.6573 17.1105C70.0825 16.435 70.6864 15.909 71.4689 15.5324C72.2513 15.1558 73.0392 15.0121 73.8324 15.1011C74.6256 15.1902 75.3666 15.503 76.0552 16.0397C76.7438 16.5763 77.321 17.3285 77.7867 18.2961ZM76.7116 18.8135C76.3292 18.0191 75.8737 17.4126 75.3448 16.994C74.819 16.5739 74.263 16.3321 73.6769 16.2684C73.0939 16.2033 72.5246 16.3044 71.9691 16.5717C71.4136 16.8391 70.9779 17.2216 70.6621 17.7194C70.3492 18.2157 70.1914 18.8011 70.1886 19.4756C70.1888 20.1486 70.3801 20.8823 70.7624 21.6767C71.1448 22.4711 71.5989 23.0784 72.1247 23.4984C72.6535 23.917 73.2095 24.1589 73.7926 24.224C74.3787 24.2877 74.9494 24.1859 75.5049 23.9185C76.0604 23.6512 76.4946 23.2693 76.8075 22.773C77.1233 22.2752 77.2811 21.6898 77.2809 21.0168C77.2837 20.3424 77.0939 19.6079 76.7116 18.8135Z" fill="white"></path> <path d="M82.0545 22.1618L78.6572 12.5635L81.9004 11.4156C82.6534 11.1491 83.317 11.0671 83.8913 11.1698C84.4676 11.2682 84.9526 11.5061 85.3463 11.8836C85.7401 12.261 86.0371 12.7325 86.2373 13.298C86.4374 13.8636 86.5037 14.4185 86.4362 14.9627C86.3718 15.5059 86.1492 15.9995 85.7685 16.4437C85.3866 16.8847 84.8224 17.2374 84.0756 17.5017L81.751 18.3244L81.3861 17.2934L83.6732 16.4839C84.1887 16.3014 84.5712 16.0658 84.8206 15.7771C85.07 15.4885 85.2114 15.1677 85.2447 14.8149C85.2801 14.4578 85.2297 14.0871 85.0937 13.7028C84.9577 13.3185 84.7642 13.0002 84.5132 12.748C84.2653 12.4947 83.9532 12.338 83.5768 12.2778C83.1993 12.2146 82.7496 12.2753 82.2279 12.4599L80.1845 13.1832L83.2168 21.7505L82.0545 22.1618Z" fill="white"></path> <path d="M90.94 19.302L90.6467 18.1865L91.2622 18.0247C91.4994 17.9624 91.6859 17.8636 91.8218 17.7285C91.9608 17.5926 92.0638 17.437 92.1309 17.2618C92.2011 17.0857 92.2504 16.9082 92.2788 16.7294L92.3366 16.3235L86.9505 9.67903L88.2392 9.3403L92.5587 14.7435L93.4321 7.97528L94.7014 7.64161L93.4661 16.7874C93.4123 17.1305 93.3335 17.4563 93.2295 17.7646C93.1287 18.0721 92.9519 18.3448 92.6991 18.5826C92.4495 18.8195 92.0747 19.0037 91.5747 19.1352L90.94 19.302Z" fill="white"></path> <path d="M106.196 16.6349L107.029 16.5283L106.295 12.5573L108.139 16.1606L108.85 15.7592L106.663 12.3409L109.74 14.9961L110.245 14.3105L106.933 12.0241L110.764 13.2845L110.997 12.4642L107.022 11.6176L111.074 11.2971L110.967 10.4639L106.969 11.2009L110.6 9.35356L110.171 8.64627L106.78 10.8299L109.407 7.75586L108.75 7.24717L106.436 10.5634L107.696 6.73265L106.903 6.49524L106.025 10.4465L105.736 6.41863L104.903 6.52515L105.612 10.5275L103.793 6.89293L103.058 7.32564L105.241 10.7161L102.195 8.08517L101.659 8.74654L105.003 11.0571L101.144 9.8003L100.934 10.5893L104.886 11.4673L100.858 11.7564L100.964 12.5896L104.939 11.8839L101.332 13.6999L101.737 14.4385L105.155 12.2514L102.497 15.3012L103.186 15.8341L105.468 12.4936L104.212 16.3522L105.028 16.5583L105.879 12.6106L106.196 16.6349Z" fill="white"></path> <path d="M125.922 8.06944L124.689 8.05041C124.622 7.69468 124.499 7.3812 124.321 7.10995C124.146 6.83875 123.931 6.61002 123.675 6.42376C123.423 6.23424 123.142 6.09067 122.832 5.99307C122.522 5.89547 122.198 5.84406 121.86 5.83884C121.243 5.82932 120.682 5.97646 120.177 6.28025C119.675 6.58409 119.272 7.03696 118.968 7.63887C118.667 8.24083 118.509 8.98257 118.496 9.86409C118.482 10.7456 118.617 11.4919 118.899 12.1028C119.184 12.7138 119.573 13.1789 120.066 13.4981C120.561 13.8174 121.117 13.9818 121.734 13.9913C122.072 13.9965 122.397 13.9551 122.71 13.8671C123.023 13.7792 123.309 13.646 123.567 13.4677C123.828 13.2861 124.05 13.0624 124.233 12.7968C124.42 12.5278 124.552 12.2183 124.63 11.8681L125.863 11.8872C125.762 12.406 125.586 12.869 125.335 13.2762C125.083 13.6833 124.773 14.0283 124.404 14.3109C124.035 14.5903 123.622 14.8011 123.166 14.9432C122.713 15.0854 122.23 15.1525 121.716 15.1445C120.848 15.1311 120.079 14.9071 119.409 14.4725C118.74 14.0379 118.217 13.4265 117.841 12.6384C117.466 11.8503 117.286 10.9194 117.303 9.84567C117.319 8.77193 117.528 7.84701 117.927 7.07089C118.327 6.29477 118.868 5.69984 119.551 5.28609C120.234 4.87233 121.009 4.67216 121.877 4.68557C122.391 4.6935 122.872 4.77551 123.32 4.9316C123.772 5.08774 124.178 5.31278 124.538 5.60673C124.898 5.89736 125.198 6.25004 125.437 6.66476C125.676 7.07617 125.837 7.5444 125.922 8.06944Z" fill="white"></path> <path d="M134.585 15.9084L131.628 10.8739L130.383 10.7341L129.862 15.3783L128.637 15.2407L129.773 5.12244L130.998 5.25998L130.505 9.6472L131.039 9.7071L135.583 5.77465L137.045 5.93881L132.455 9.92611L136.048 16.0726L134.585 15.9084Z" fill="white"></path> <path d="M137.996 16.3784L136.729 16.1216L142.415 6.88516L143.663 7.13793L145.305 17.8594L144.038 17.6027L142.758 8.59815L142.68 8.58236L137.996 16.3784ZM139.253 12.5751L144.36 13.6099L144.143 14.6818L139.036 13.6471L139.253 12.5751Z" fill="white"></path> <path d="M149.836 8.4786L151.016 8.83699L150.027 12.0907C149.881 12.5728 149.85 12.9773 149.934 13.3042C150.019 13.628 150.198 13.8937 150.471 14.1013C150.745 14.3058 151.092 14.4716 151.51 14.5988C151.773 14.6787 152.032 14.7468 152.285 14.8029C152.539 14.8558 152.789 14.8989 153.035 14.9322C153.285 14.9664 153.53 14.9907 153.772 15.0052C154.016 15.0207 154.258 15.0283 154.497 15.0282L154.174 16.0938C153.941 16.0958 153.712 16.092 153.486 16.0823C153.263 16.0736 153.034 16.0541 152.797 16.0237C152.564 15.9943 152.315 15.9517 152.051 15.8959C151.789 15.8369 151.5 15.7597 151.186 15.6643C150.514 15.4601 149.965 15.1875 149.538 14.8467C149.115 14.5068 148.839 14.0817 148.71 13.5714C148.584 13.0621 148.63 12.449 148.848 11.7323L149.836 8.4786ZM155.773 10.2821L156.953 10.6405L153.993 20.3827L152.813 20.0243L155.773 10.2821Z" fill="white"></path> <path d="M157.609 21.6472L156.415 21.1526L163.765 13.1764L164.941 13.6634L164.499 24.5009L163.305 24.0062L163.774 14.9233L163.7 14.8928L157.609 21.6472ZM159.572 18.1553L164.386 20.1491L163.967 21.1596L159.154 19.1658L159.572 18.1553Z" fill="white"></path> <path d="M169.567 16.8402L170.07 15.8692L176.85 19.3834L176.347 20.3545L173.504 18.8811L169.322 26.9496L168.227 26.3822L172.41 18.3137L169.567 16.8402Z" fill="white"></path> <path d="M177.182 24.5171L179.637 26.0667C180.254 26.4558 180.71 26.8849 181.006 27.3538C181.304 27.8245 181.447 28.3124 181.434 28.8176C181.424 29.3245 181.261 29.8274 180.946 30.3263C180.632 30.8252 180.243 31.1954 179.781 31.4368C179.322 31.6801 178.811 31.7751 178.249 31.7221C177.689 31.6708 177.101 31.4505 176.485 31.0614L173.256 29.0235L178.69 20.4132L179.733 21.0712L174.872 28.7735L177.058 30.1532C177.45 30.4009 177.832 30.532 178.203 30.5467C178.578 30.5603 178.915 30.4866 179.213 30.3256C179.515 30.1635 179.754 29.9423 179.931 29.6621C180.191 29.25 180.257 28.7955 180.127 28.2985C180 27.7987 179.642 27.3631 179.053 26.9916L176.598 25.442L177.182 24.5171Z" fill="white"></path> <path d="M184.644 36.6402L191.132 28.7932L195.868 32.7087L195.171 33.5517L191.386 30.4218L189.358 32.874L191.351 34.5213C191.913 34.9859 192.31 35.4696 192.544 35.9725C192.78 36.4774 192.86 36.9795 192.782 37.4789C192.707 37.9804 192.482 38.4584 192.106 38.9131C191.73 39.3678 191.298 39.6854 190.809 39.866C190.322 40.0486 189.803 40.0778 189.252 39.9535C188.704 39.8312 188.149 39.5378 187.587 39.0732L184.644 36.6402ZM186.279 36.5982L188.271 38.2456C188.629 38.5412 188.991 38.72 189.357 38.7818C189.728 38.8432 190.071 38.813 190.386 38.6912C190.707 38.5691 190.973 38.3803 191.184 38.1248C191.494 37.7493 191.617 37.3069 191.552 36.7975C191.49 36.2855 191.19 35.8077 190.654 35.3642L188.661 33.7169L186.279 36.5982Z" fill="white"></path> <path d="M192.213 43.0508L199.36 35.7991L201.81 38.214C202.379 38.7747 202.743 39.3357 202.902 39.897C203.065 40.4583 203.063 40.9986 202.896 41.5177C202.729 42.0369 202.434 42.5101 202.013 42.9374C201.592 43.3647 201.122 43.6669 200.603 43.8441C200.086 44.0237 199.545 44.0393 198.979 43.8911C198.416 43.7405 197.852 43.3872 197.288 42.8311L195.531 41.1002L196.299 40.3212L198.027 42.0242C198.416 42.4081 198.796 42.6491 199.164 42.7472C199.533 42.8453 199.883 42.8322 200.215 42.7079C200.552 42.5836 200.863 42.3762 201.149 42.0859C201.435 41.7955 201.637 41.4824 201.754 41.1464C201.874 40.8127 201.878 40.4635 201.768 40.0986C201.659 39.7315 201.408 39.3536 201.014 38.9651L199.47 37.4435L193.091 43.9163L192.213 43.0508Z" fill="white"></path> <path d="M207.399 51.9662C206.581 52.6624 205.749 53.1165 204.902 53.3284C204.055 53.5403 203.251 53.5264 202.489 53.2867C201.728 53.047 201.066 52.5966 200.503 51.9355C199.94 51.2744 199.601 50.5489 199.485 49.7591C199.37 48.9693 199.484 48.1732 199.828 47.3708C200.172 46.5684 200.753 45.8191 201.571 45.1228C202.388 44.4266 203.221 43.9725 204.068 43.7606C204.914 43.5487 205.719 43.5626 206.48 43.8023C207.241 44.042 207.904 44.4924 208.467 45.1535C209.03 45.8146 209.369 46.5401 209.484 47.3299C209.6 48.1197 209.485 48.9158 209.141 49.7182C208.797 50.5206 208.216 51.2699 207.399 51.9662ZM206.625 51.0578C207.296 50.4861 207.767 49.8914 208.038 49.2736C208.31 48.6583 208.403 48.0591 208.316 47.4761C208.231 46.8956 207.988 46.3707 207.588 45.9013C207.189 45.432 206.708 45.1078 206.146 44.9288C205.587 44.7523 204.981 44.7483 204.328 44.917C203.677 45.0882 203.016 45.4596 202.344 46.0312C201.673 46.6028 201.201 47.1963 200.929 47.8116C200.658 48.4295 200.565 49.0286 200.65 49.6091C200.738 50.1921 200.981 50.7183 201.381 51.1877C201.781 51.657 202.26 51.9799 202.82 52.1565C203.382 52.3355 203.988 52.3394 204.639 52.1682C205.292 51.9995 205.954 51.6294 206.625 51.0578Z" fill="white"></path> <path d="M213.234 51.0789L213.922 52.1018L206.415 57.1534L208.414 60.1231L215.921 55.0716L216.609 56.0945L209.102 61.1461L211.101 64.1158L218.608 59.0643L219.296 60.0872L210.849 65.7716L204.787 56.7633L213.234 51.0789Z" fill="white"></path> <path d="M221.971 64.6727L212.846 69.1901L212.299 68.0851L221.424 63.5677L221.971 64.6727ZM218.805 68.7201L217.825 69.2053L216.442 66.4118L217.422 65.9265L218.805 68.7201ZM222.226 76.6622C221.264 77.1386 220.346 77.3766 219.473 77.3761C218.6 77.3756 217.823 77.1665 217.143 76.7488C216.463 76.3311 215.93 75.7331 215.545 74.9549C215.16 74.1767 215.007 73.3905 215.088 72.5963C215.168 71.8021 215.472 71.0577 216.001 70.3632C216.53 69.6686 217.276 69.0831 218.238 68.6067C219.201 68.1302 220.118 67.8922 220.991 67.8927C221.864 67.8932 222.641 68.1023 223.321 68.5201C224.001 68.9378 224.534 69.5357 224.919 70.314C225.305 71.0922 225.457 71.8784 225.377 72.6726C225.297 73.4667 224.992 74.2111 224.463 74.9057C223.934 75.6002 223.189 76.1857 222.226 76.6622ZM221.697 75.5929C222.487 75.2017 223.088 74.7394 223.501 74.2059C223.915 73.6755 224.151 73.1168 224.208 72.5301C224.267 71.9463 224.159 71.3782 223.886 70.8257C223.612 70.2732 223.225 69.8418 222.724 69.5315C222.224 69.2242 221.637 69.0729 220.962 69.0777C220.289 69.0854 219.558 69.2848 218.768 69.676C217.978 70.0671 217.375 70.528 216.961 71.0585C216.549 71.5919 216.313 72.1505 216.254 72.7343C216.197 73.3211 216.305 73.8907 216.579 74.4431C216.852 74.9956 217.239 75.4255 217.739 75.7328C218.24 76.0431 218.827 76.1944 219.5 76.1867C220.175 76.182 220.907 75.984 221.697 75.5929Z" fill="white"></path> <path d="M218.429 81.0312L227.988 77.526L229.172 80.756C229.447 81.5059 229.537 82.1686 229.441 82.744C229.349 83.3213 229.116 83.809 228.743 84.207C228.37 84.605 227.902 84.9073 227.339 85.1138C226.776 85.3203 226.222 85.3929 225.677 85.3315C225.133 85.2732 224.637 85.0562 224.188 84.6805C223.743 84.3037 223.384 83.7434 223.111 82.9997L222.262 80.6845L223.289 80.308L224.124 82.5858C224.313 83.0992 224.553 83.479 224.844 83.7252C225.136 83.9713 225.458 84.1091 225.811 84.1384C226.169 84.1697 226.539 84.1152 226.921 83.9749C227.304 83.8345 227.62 83.6374 227.87 83.3836C228.12 83.1329 228.273 82.819 228.329 82.442C228.388 82.0638 228.322 81.6149 228.132 81.0952L227.386 79.0601L218.853 82.1888L218.429 81.0312Z" fill="white"></path> <path d="M221.363 89.8178L222.475 89.5119L222.644 90.1254C222.709 90.3619 222.81 90.5473 222.947 90.6816C223.084 90.8191 223.241 90.9204 223.417 90.9854C223.594 91.0536 223.772 91.1009 223.951 91.1272L224.357 91.1804L230.94 85.7191L231.294 87.0038L225.94 91.3845L232.718 92.1808L233.066 93.4463L223.906 92.3151C223.563 92.2653 223.236 92.1901 222.927 92.0896C222.618 91.9923 222.343 91.8187 222.103 91.5686C221.863 91.3217 221.674 90.9491 221.537 90.4505L221.363 89.8178Z" fill="white"></path> <path d="M224.224 105.213L224.341 106.045L228.303 105.266L224.721 107.151L225.131 107.857L228.523 105.631L225.904 108.739L226.595 109.236L228.843 105.897L227.627 109.742L228.45 109.967L229.251 105.982L229.618 110.03L230.45 109.914L229.667 105.924L231.556 109.533L232.258 109.096L230.036 105.731L233.14 108.323L233.641 107.659L230.298 105.383L234.143 106.6L234.372 105.804L230.41 104.972L234.435 104.636L234.319 103.804L230.325 104.56L233.938 102.698L233.497 101.968L230.132 104.191L232.727 101.115L232.06 100.586L229.788 103.956L231 100.083L230.209 99.8829L229.377 103.844L229.041 99.8198L228.209 99.9359L228.961 103.902L227.103 100.316L226.369 100.73L228.596 104.123L225.515 101.499L224.99 102.194L228.357 104.439L224.484 103.226L224.288 104.045L228.245 104.85L224.224 105.213Z" fill="white"></path> </svg> 