<?xml version="1.0" encoding="UTF-8"?> <svg xmlns="http://www.w3.org/2000/svg" width="203" height="203" viewBox="0 0 203 203" fill="none"> <path d="M186.627 105.282L186.805 101.996L196.955 102.545L196.771 105.935C196.718 106.929 196.468 107.772 196.023 108.464C195.581 109.156 194.972 109.671 194.195 110.01C193.421 110.353 192.507 110.496 191.453 110.439C190.396 110.381 189.498 110.139 188.759 109.711C188.019 109.287 187.465 108.7 187.094 107.951C186.727 107.202 186.571 106.313 186.627 105.282ZM188.06 103.6L187.97 105.27C187.928 106.043 188.039 106.693 188.302 107.221C188.568 107.749 188.972 108.156 189.513 108.44C190.058 108.725 190.732 108.889 191.534 108.932C192.331 108.975 193.013 108.884 193.582 108.66C194.151 108.439 194.592 108.087 194.907 107.603C195.221 107.12 195.398 106.508 195.438 105.768L195.534 104.004L188.06 103.6Z" fill="white"></path> <path d="M189.691 121.359C188.622 121.172 187.737 120.816 187.036 120.29C186.338 119.765 185.842 119.126 185.548 118.372C185.255 117.623 185.185 116.816 185.336 115.952C185.488 115.085 185.828 114.347 186.358 113.738C186.891 113.132 187.576 112.701 188.413 112.444C189.251 112.188 190.203 112.153 191.269 112.339C192.338 112.526 193.221 112.882 193.918 113.407C194.619 113.933 195.116 114.571 195.408 115.321C195.702 116.074 195.774 116.884 195.622 117.751C195.471 118.615 195.129 119.35 194.597 119.955C194.067 120.565 193.383 120.998 192.546 121.254C191.711 121.511 190.76 121.546 189.691 121.359ZM189.952 119.863C190.767 120.006 191.476 119.994 192.08 119.827C192.686 119.665 193.173 119.38 193.539 118.974C193.908 118.572 194.143 118.084 194.244 117.51C194.345 116.933 194.29 116.393 194.079 115.889C193.871 115.386 193.51 114.953 192.996 114.591C192.484 114.233 191.821 113.983 191.006 113.84C190.191 113.698 189.481 113.708 188.874 113.87C188.271 114.037 187.785 114.321 187.415 114.724C187.049 115.126 186.816 115.616 186.715 116.193C186.614 116.767 186.668 117.305 186.876 117.808C187.086 118.316 187.447 118.748 187.959 119.106C188.473 119.468 189.138 119.721 189.952 119.863Z" fill="white"></path> <path d="M183.73 124.174L194.268 124.631L193.77 126.165L185.672 125.619L185.642 125.708L192.494 130.097L192 131.617L183.873 131.145L183.844 131.235L190.726 135.545L190.226 137.084L181.43 131.26L181.906 129.792L189.808 130.108L189.833 130.032L183.252 125.647L183.73 124.174Z" fill="white"></path> <path d="M185.536 146.733L176.41 142.258L177.031 140.992L185.999 139.636L186.041 139.551L179.348 136.269L180.023 134.892L189.149 139.368L188.524 140.642L179.545 141.998L179.503 142.083L186.205 145.37L185.536 146.733Z" fill="white"></path> <path d="M175.089 144.524L183.685 149.949L182.866 151.245L175.387 146.525L172.928 150.42L171.812 149.715L175.089 144.524Z" fill="white"></path> <path d="M169.792 160.694C168.938 160.024 168.326 159.292 167.957 158.497C167.591 157.705 167.456 156.907 167.552 156.103C167.649 155.305 167.968 154.56 168.509 153.871C169.053 153.178 169.702 152.689 170.457 152.402C171.212 152.12 172.019 152.064 172.879 152.234C173.738 152.403 174.594 152.822 175.445 153.49C176.299 154.16 176.909 154.891 177.275 155.684C177.644 156.478 177.781 157.275 177.684 158.074C177.587 158.877 177.268 159.625 176.724 160.317C176.183 161.007 175.534 161.493 174.779 161.775C174.024 162.062 173.217 162.12 172.358 161.95C171.501 161.783 170.645 161.364 169.792 160.694ZM170.729 159.499C171.38 160.01 172.011 160.334 172.621 160.473C173.232 160.616 173.795 160.595 174.31 160.41C174.826 160.23 175.264 159.911 175.623 159.453C175.985 158.992 176.192 158.49 176.244 157.947C176.299 157.405 176.185 156.853 175.903 156.291C175.621 155.734 175.155 155.199 174.504 154.689C173.853 154.178 173.222 153.851 172.611 153.708C172.001 153.57 171.438 153.59 170.922 153.77C170.409 153.952 169.972 154.274 169.61 154.735C169.251 155.193 169.044 155.693 168.989 156.234C168.934 156.78 169.048 157.332 169.33 157.89C169.612 158.452 170.078 158.988 170.729 159.499Z" fill="white"></path> <path d="M163.849 159.603L164.996 158.448L169.633 168.205L168.384 169.462L158.594 164.897L159.741 163.742L167.668 167.563L167.724 167.507L163.849 159.603ZM166.482 162.601L162.761 166.349L161.845 165.44L165.566 161.692L166.482 162.601Z" fill="white"></path> <path d="M155.492 167.397L158.051 165.328L164.442 173.232L161.802 175.366C161.028 175.992 160.235 176.372 159.423 176.505C158.614 176.64 157.823 176.533 157.05 176.183C156.278 175.838 155.559 175.255 154.896 174.434C154.23 173.611 153.808 172.781 153.631 171.946C153.451 171.113 153.515 170.308 153.823 169.531C154.133 168.757 154.69 168.046 155.492 167.397ZM157.701 167.334L156.4 168.386C155.798 168.872 155.39 169.39 155.174 169.939C154.96 170.491 154.929 171.062 155.08 171.655C155.234 172.25 155.563 172.86 156.069 173.485C156.57 174.105 157.095 174.551 157.642 174.823C158.187 175.098 158.745 175.19 159.314 175.099C159.884 175.009 160.457 174.731 161.033 174.265L162.407 173.154L157.701 167.334Z" fill="white"></path> <path d="M147.537 173.284L152.675 182.054L149.463 183.936C148.841 184.3 148.265 184.499 147.736 184.533C147.209 184.569 146.742 184.473 146.336 184.243C145.931 184.017 145.601 183.686 145.347 183.252C145.133 182.887 145.019 182.539 145.006 182.209C144.995 181.882 145.058 181.577 145.195 181.294C145.33 181.015 145.512 180.762 145.741 180.537L145.69 180.451C145.391 180.607 145.052 180.68 144.673 180.668C144.292 180.66 143.918 180.552 143.55 180.342C143.181 180.132 142.864 179.8 142.598 179.346C142.336 178.898 142.206 178.433 142.208 177.953C142.209 177.477 142.367 177.006 142.682 176.542C142.998 176.081 143.496 175.651 144.175 175.253L147.537 173.284ZM146.879 175.194L144.969 176.312C144.335 176.684 143.953 177.072 143.823 177.479C143.692 177.885 143.735 178.272 143.951 178.64C144.113 178.917 144.332 179.13 144.607 179.279C144.883 179.429 145.19 179.496 145.53 179.481C145.868 179.467 146.213 179.357 146.567 179.149L148.524 178.003L146.879 175.194ZM149.129 179.035L147.356 180.074C147.059 180.248 146.826 180.461 146.655 180.714C146.483 180.969 146.386 181.24 146.367 181.527C146.346 181.819 146.419 182.107 146.584 182.389C146.797 182.752 147.102 182.982 147.5 183.078C147.898 183.175 148.359 183.069 148.885 182.762L150.692 181.703L149.129 179.035Z" fill="white"></path> <path d="M139.693 177.769L143.861 187.04L140.556 188.526C139.838 188.849 139.186 188.993 138.601 188.958C138.013 188.925 137.503 188.743 137.071 188.411C136.64 188.082 136.297 187.633 136.04 187.063C135.785 186.495 135.68 185.942 135.724 185.403C135.767 184.869 135.973 184.376 136.343 183.923C136.709 183.471 137.252 183.084 137.97 182.761L140.473 181.636L141.015 182.84L138.638 183.908C138.185 184.112 137.846 184.342 137.621 184.6C137.393 184.858 137.268 185.141 137.246 185.448C137.225 185.755 137.292 186.083 137.448 186.43C137.605 186.78 137.81 187.052 138.061 187.248C138.309 187.445 138.607 187.547 138.955 187.553C139.301 187.565 139.705 187.467 140.166 187.259L141.923 186.469L138.294 178.398L139.693 177.769ZM136.997 184.01L132.826 180.857L134.419 180.14L138.545 183.314L136.997 184.01Z" fill="white"></path> <path d="M124.621 188.931C124.29 187.897 124.194 186.948 124.334 186.083C124.475 185.222 124.811 184.485 125.341 183.874C125.869 183.267 126.551 182.83 127.386 182.562C128.224 182.294 129.036 182.252 129.822 182.438C130.605 182.629 131.305 183.035 131.922 183.657C132.538 184.28 133.011 185.106 133.342 186.137C133.673 187.17 133.768 188.118 133.627 188.98C133.487 189.844 133.153 190.58 132.625 191.187C132.094 191.798 131.41 192.238 130.572 192.507C129.737 192.774 128.928 192.813 128.144 192.623C127.358 192.437 126.657 192.032 126.041 191.41C125.425 190.791 124.952 189.964 124.621 188.931ZM126.067 188.467C126.32 189.255 126.66 189.877 127.088 190.334C127.514 190.796 127.991 191.094 128.521 191.23C129.049 191.37 129.59 191.352 130.145 191.174C130.703 190.995 131.156 190.696 131.504 190.275C131.853 189.857 132.068 189.336 132.15 188.713C132.229 188.093 132.143 187.389 131.891 186.602C131.638 185.814 131.299 185.189 130.873 184.728C130.446 184.271 129.968 183.973 129.44 183.832C128.913 183.696 128.371 183.716 127.813 183.895C127.258 184.073 126.807 184.37 126.457 184.788C126.106 185.21 125.891 185.73 125.811 186.35C125.73 186.974 125.815 187.68 126.067 188.467Z" fill="white"></path> <path d="M114.234 192.828L115.755 192.538C115.875 192.852 116.039 193.117 116.245 193.334C116.452 193.55 116.687 193.723 116.95 193.851C117.214 193.979 117.497 194.06 117.8 194.093C118.099 194.127 118.408 194.114 118.727 194.053C119.302 193.943 119.79 193.7 120.189 193.324C120.586 192.949 120.863 192.456 121.019 191.847C121.173 191.239 121.173 190.531 121.019 189.725C120.864 188.913 120.603 188.252 120.236 187.742C119.866 187.233 119.427 186.879 118.917 186.68C118.408 186.481 117.868 186.435 117.3 186.544C116.984 186.604 116.693 186.703 116.427 186.842C116.157 186.984 115.924 187.162 115.725 187.375C115.526 187.588 115.371 187.831 115.258 188.106C115.143 188.384 115.084 188.688 115.083 189.018L113.561 189.303C113.549 188.797 113.621 188.315 113.776 187.858C113.928 187.404 114.158 186.993 114.465 186.625C114.77 186.26 115.139 185.952 115.573 185.701C116.006 185.45 116.498 185.272 117.047 185.167C117.912 185.002 118.721 185.06 119.475 185.341C120.23 185.625 120.875 186.113 121.412 186.806C121.945 187.499 122.313 188.377 122.515 189.44C122.719 190.506 122.698 191.458 122.454 192.296C122.21 193.137 121.789 193.827 121.192 194.366C120.594 194.908 119.865 195.261 119.004 195.425C118.474 195.526 117.965 195.544 117.478 195.478C116.988 195.417 116.531 195.275 116.108 195.053C115.686 194.833 115.314 194.537 114.994 194.164C114.674 193.793 114.421 193.348 114.234 192.828Z" fill="white"></path> <path d="M111.538 186.23L112.282 196.367L110.752 196.479L110.429 192.074L105.375 192.445L105.699 196.85L104.164 196.963L103.42 186.826L104.954 186.713L105.279 191.133L110.333 190.762L110.008 186.342L111.538 186.23Z" fill="white"></path> <path d="M94.3695 196.686L92.8326 196.615L93.1421 189.936C93.175 189.226 93.3711 188.604 93.7303 188.071C94.0894 187.541 94.5787 187.133 95.1981 186.847C95.8174 186.564 96.5335 186.442 97.3466 186.479C98.1564 186.517 98.8565 186.705 99.447 187.044C100.037 187.386 100.487 187.837 100.795 188.398C101.104 188.962 101.241 189.6 101.208 190.31L100.899 196.989L99.367 196.918L99.6708 190.363C99.692 189.904 99.6102 189.491 99.4251 189.125C99.2367 188.758 98.9605 188.464 98.5965 188.242C98.2324 188.023 97.7941 187.901 97.2818 187.878C96.7662 187.854 96.317 187.934 95.9341 188.118C95.5479 188.306 95.2473 188.573 95.0324 188.921C94.8143 189.269 94.6945 189.672 94.6732 190.132L94.3695 196.686Z" fill="white"></path> <path d="M91.5008 186.243L89.9414 196.287L86.3612 195.731C85.583 195.611 84.9581 195.376 84.4864 195.028C84.0114 194.68 83.6832 194.249 83.5018 193.735C83.3198 193.225 83.2768 192.661 83.3728 192.043C83.4682 191.428 83.6813 190.907 84.0122 190.48C84.3393 190.055 84.7812 189.754 85.3379 189.575C85.8914 189.397 86.5572 189.368 87.3353 189.489L90.0475 189.91L89.845 191.214L87.2701 190.815C86.7797 190.739 86.3699 190.747 86.0407 190.84C85.7083 190.932 85.4493 191.101 85.2638 191.347C85.0783 191.593 84.9564 191.904 84.898 192.28C84.8392 192.659 84.8617 192.999 84.9657 193.3C85.0664 193.6 85.2606 193.848 85.5484 194.043C85.8324 194.241 86.2245 194.379 86.7248 194.457L88.6277 194.752L89.9853 186.008L91.5008 186.243ZM85.8388 190.005L84.0608 185.088L85.7871 185.356L87.5162 190.265L85.8388 190.005Z" fill="white"></path> <path d="M82.5897 184.724L80.0056 194.555L73.8422 192.934L74.1778 191.658L78.8579 192.888L79.6453 189.893L75.2868 188.747L75.6212 187.475L79.9797 188.621L80.7708 185.611L76.0331 184.366L76.3687 183.089L82.5897 184.724Z" fill="white"></path> <path d="M68.0247 179.249L67.256 178.914L65.8516 182.693L66.1162 178.661L65.3014 178.641L65.4258 182.69L64.1477 178.839L63.3637 179.168L65.0322 182.823L62.3944 179.782L61.7741 180.365L64.7476 183.126L61.1109 181.326L60.7756 182.095L64.58 183.51L60.5223 183.235L60.528 184.061L64.5516 183.925L60.7261 185.214L61.0294 185.987L64.7105 184.33L61.6691 186.968L62.2267 187.577L65.0022 184.64L63.1878 188.24L63.9564 188.575L65.3976 184.782L65.0963 188.829L65.9478 188.834L65.8122 184.81L67.0759 188.625L67.8743 188.333L66.1914 184.64L68.8548 187.693L69.4384 187.124L66.5016 184.349L70.1016 186.163L70.4369 185.394L66.6692 183.964L70.6901 184.255L70.7212 183.414L66.672 183.539L70.512 182.286L70.1942 181.477L66.5275 183.171L69.5801 180.507L68.9857 179.912L66.2359 182.86L68.0247 179.249Z" fill="#EFEFEF"></path> <path d="M55.5293 173.394L58.286 175.191L52.7354 183.706L49.8914 181.852C49.0571 181.308 48.4517 180.671 48.0752 179.94C47.6969 179.211 47.5552 178.426 47.6502 177.583C47.7407 176.741 48.0741 175.879 48.6504 174.994C49.2286 174.107 49.8876 173.451 50.6275 173.025C51.3646 172.597 52.1501 172.41 52.984 172.463C53.816 172.52 54.6645 172.83 55.5293 173.394ZM56.2694 175.476L54.8682 174.562C54.2196 174.14 53.601 173.91 53.0123 173.874C52.4219 173.841 51.8682 173.987 51.3512 174.314C50.8324 174.643 50.3535 175.145 49.9144 175.818C49.479 176.486 49.2162 177.123 49.1261 177.727C49.0332 178.33 49.1174 178.889 49.3788 179.403C49.6402 179.917 50.0813 180.376 50.7022 180.781L52.1824 181.746L56.2694 175.476Z" fill="white"></path> <path d="M40.0991 168.037C40.7936 167.203 41.5434 166.614 42.3482 166.268C43.1509 165.924 43.9525 165.813 44.7528 165.932C45.5484 166.052 46.2831 166.393 46.9568 166.954C47.6331 167.518 48.1035 168.181 48.368 168.944C48.6278 169.707 48.6604 170.516 48.4658 171.37C48.2711 172.224 47.8275 173.067 47.135 173.898C46.4404 174.732 45.6918 175.32 44.889 175.664C44.0842 176.01 43.2839 176.123 42.4883 176.002C41.688 175.883 40.9497 175.541 40.2735 174.978C39.5997 174.417 39.1329 173.754 38.8731 172.991C38.6086 172.228 38.5736 171.42 38.7683 170.566C38.9609 169.714 39.4045 168.871 40.0991 168.037ZM41.266 169.009C40.7366 169.645 40.3938 170.266 40.2376 170.872C40.0767 171.479 40.0811 172.042 40.2507 172.562C40.4156 173.083 40.7218 173.53 41.1692 173.902C41.6192 174.277 42.1152 174.499 42.657 174.567C43.1968 174.637 43.7517 174.54 44.3219 174.274C44.8874 174.009 45.4348 173.558 45.9643 172.923C46.4937 172.287 46.8388 171.666 46.9997 171.059C47.1558 170.453 47.1515 169.89 46.9866 169.369C46.8195 168.851 46.511 168.404 46.061 168.03C45.6136 167.657 45.12 167.435 44.5802 167.365C44.0358 167.294 43.4809 167.392 42.9154 167.657C42.3452 167.923 41.7954 168.374 41.266 169.009Z" fill="white"></path> <path d="M40.6336 161.46L34.9794 170.365L33.8983 169.168L38.4129 162.422L38.3497 162.352L31.1273 166.1L30.0562 164.913L34.5213 158.106L34.4581 158.036L27.2886 161.849L26.2041 160.648L35.6405 155.931L36.6751 157.077L32.4584 163.767L32.5116 163.826L39.5957 160.311L40.6336 161.46Z" fill="white"></path> <path d="M20.2431 151.923L28.6553 146.218L29.4465 147.384L26.1772 155.844L26.2301 155.923L32.3996 151.738L33.2605 153.007L24.8483 158.713L24.0515 157.538L27.3263 149.068L27.2733 148.99L21.0956 153.18L20.2431 151.923Z" fill="white"></path> <path d="M27.4291 144.095L18.475 148.906L17.7492 147.555L25.5403 143.369L23.3604 139.312L24.5234 138.687L27.4291 144.095Z" fill="white"></path> <path d="M15.9372 131.358C16.9429 130.95 17.8822 130.783 18.7551 130.858C19.6249 130.934 20.3844 131.213 21.0336 131.696C21.6786 132.177 22.1658 132.824 22.4953 133.637C22.826 134.452 22.9281 135.259 22.8015 136.056C22.6707 136.852 22.3181 137.581 21.7436 138.242C21.1691 138.903 20.3805 139.437 19.3779 139.844C18.3721 140.252 17.4343 140.418 16.5646 140.342C15.6917 140.267 14.9328 139.989 14.2879 139.508C13.6386 139.025 13.1486 138.376 12.8179 137.56C12.4885 136.748 12.3891 135.944 12.52 135.148C12.6465 134.35 12.997 133.621 13.5715 132.96C14.1429 132.3 14.9314 131.766 15.9372 131.358ZM16.5078 132.765C15.7413 133.076 15.1461 133.462 14.7225 133.923C14.2946 134.382 14.0327 134.881 13.9369 135.42C13.8368 135.956 13.8962 136.495 14.115 137.034C14.335 137.577 14.6679 138.006 15.1136 138.322C15.5563 138.639 16.0917 138.814 16.7198 138.849C17.3436 138.882 18.0388 138.743 18.8053 138.432C19.5719 138.121 20.1692 137.736 20.5971 137.277C21.0208 136.816 21.2826 136.317 21.3827 135.78C21.4798 135.244 21.4183 134.705 21.1982 134.163C20.9794 133.623 20.6487 133.195 20.206 132.878C19.7591 132.559 19.2237 132.384 18.5999 132.351C17.9718 132.316 17.2744 132.454 16.5078 132.765Z" fill="white"></path> <path d="M19.8438 126.802L20.2755 128.372L9.50485 127.541L9.03493 125.833L17.8654 119.61L18.2971 121.179L11.0389 126.156L11.0599 126.233L19.8438 126.802ZM15.9335 127.595L14.5329 122.503L15.7771 122.161L17.1777 127.253L15.9335 127.595Z" fill="white"></path> <path d="M17.2455 115.738L17.7627 118.988L7.72454 120.586L7.19088 117.233C7.03432 116.249 7.10082 115.373 7.3904 114.603C7.6767 113.834 8.16409 113.202 8.85256 112.707C9.53725 112.209 10.4008 111.877 11.4432 111.711C12.4888 111.545 13.4178 111.593 14.2302 111.856C15.0421 112.115 15.7079 112.572 16.2275 113.226C16.7439 113.881 17.0832 114.719 17.2455 115.738ZM16.1983 117.684L15.9353 116.032C15.8136 115.267 15.5687 114.655 15.2005 114.194C14.8291 113.734 14.3488 113.422 13.7598 113.257C13.1675 113.094 12.4744 113.075 11.6803 113.201C10.8928 113.327 10.2446 113.559 9.73572 113.898C9.22628 114.234 8.86869 114.671 8.66295 115.21C8.45721 115.748 8.41259 116.384 8.5291 117.115L8.80685 118.86L16.1983 117.684Z" fill="white"></path> <path d="M16.1017 106.108L5.93783 106.225L5.89472 102.503C5.88637 101.782 5.99856 101.183 6.2313 100.707C6.46073 100.232 6.7759 99.8738 7.17683 99.6342C7.57444 99.3947 8.0247 99.272 8.5276 99.2662C8.9511 99.2613 9.30932 99.3349 9.60228 99.487C9.89192 99.6392 10.1259 99.8449 10.3043 100.104C10.4793 100.36 10.6084 100.643 10.6914 100.954L10.7906 100.952C10.8033 100.615 10.9086 100.284 11.1067 99.961C11.3015 99.6344 11.5813 99.3632 11.9461 99.1472C12.3109 98.9312 12.7563 98.8201 13.2824 98.814C13.8018 98.808 14.2697 98.925 14.6861 99.1651C15.0992 99.4018 15.4294 99.7719 15.6768 100.275C15.9209 100.779 16.0475 101.424 16.0566 102.212L16.1017 106.108ZM14.7688 104.589L14.7432 102.376C14.7347 101.641 14.5863 101.117 14.2981 100.803C14.0099 100.488 13.6524 100.334 13.2256 100.338C12.9046 100.342 12.6111 100.427 12.345 100.592C12.0789 100.757 11.8682 100.991 11.7128 101.294C11.5575 101.594 11.4822 101.949 11.4869 102.359L11.5132 104.627L14.7688 104.589ZM10.3171 104.641L10.2933 102.586C10.2894 102.242 10.2196 101.933 10.0841 101.66C9.94853 101.384 9.7607 101.166 9.52061 101.007C9.27716 100.844 8.99167 100.765 8.66412 100.769C8.24394 100.773 7.89328 100.925 7.61216 101.222C7.33103 101.52 7.19399 101.973 7.20104 102.582L7.22529 104.677L10.3171 104.641Z" fill="white"></path> <path d="M16.0952 96.7973L5.97783 95.819L6.32655 92.2127C6.40235 91.4288 6.60028 90.7914 6.92034 90.3005C7.24071 89.8062 7.6521 89.4538 8.15448 89.2431C8.65358 89.032 9.21435 88.9566 9.83681 89.0168C10.456 89.0767 10.9884 89.2595 11.4342 89.5652C11.8771 89.8673 12.2034 90.2911 12.4133 90.8366C12.6235 91.3789 12.6907 92.0419 12.6149 92.8257L12.3507 95.5576L11.0366 95.4305L11.2874 92.837C11.3352 92.343 11.3032 91.9343 11.1915 91.611C11.0802 91.2845 10.8965 91.0357 10.6404 90.8647C10.3844 90.6936 10.067 90.5898 9.68824 90.5532C9.3062 90.5162 8.96805 90.5583 8.67378 90.6795C8.37982 90.7973 8.14362 91.0055 7.96516 91.304C7.78373 91.599 7.66865 91.9984 7.61992 92.5023L7.43457 94.4191L16.2428 95.2708L16.0952 96.7973ZM12.0135 91.3614L16.8199 89.3031L16.6517 91.042L11.8501 93.051L12.0135 91.3614Z" fill="white"></path> <path d="M13.9651 77.8607C15.0253 78.0925 15.8945 78.4857 16.5726 79.0403C17.2474 79.5943 17.7163 80.2539 17.9791 81.0192C18.2394 81.7806 18.276 82.5896 18.0887 83.4462C17.9008 84.306 17.5294 85.0292 16.9744 85.6158C16.4169 86.1984 15.7143 86.6003 14.8667 86.8214C14.019 87.0426 13.0667 87.0376 12.0097 86.8066C10.9495 86.5748 10.0819 86.182 9.40706 85.628C8.72899 85.0734 8.25979 84.4154 7.99946 83.654C7.73661 82.8887 7.69916 82.0761 7.8871 81.2163C8.07434 80.3597 8.4467 79.6401 9.00418 79.0575C9.55914 78.4709 10.2604 78.067 11.1081 77.8459C11.9525 77.624 12.9048 77.629 13.9651 77.8607ZM13.6408 79.3444C12.8327 79.1678 12.1236 79.15 11.5136 79.291C10.9011 79.4281 10.4032 79.6918 10.0198 80.0821C9.63391 80.4686 9.37878 80.9462 9.25443 81.5152C9.12937 82.0873 9.16158 82.6295 9.35106 83.1417C9.5373 83.6532 9.8798 84.1006 10.3786 84.4839C10.8748 84.8634 11.527 85.1414 12.3351 85.318C13.1432 85.4947 13.8535 85.5144 14.466 85.3774C15.076 85.2364 15.5739 84.9727 15.9598 84.5862C16.3425 84.1991 16.5964 83.7194 16.7214 83.1473C16.8458 82.5784 16.8148 82.0382 16.6286 81.5267C16.4398 81.0113 16.0973 80.5638 15.6011 80.1844C15.1023 79.8011 14.4489 79.5211 13.6408 79.3444Z" fill="white"></path> <path d="M15.7596 66.9107L15.2484 68.3724C14.9164 68.3194 14.605 68.3279 14.3141 68.3979C14.0232 68.468 13.7562 68.5849 13.5132 68.7488C13.2701 68.9126 13.0583 69.1172 12.8778 69.3626C12.6985 69.6048 12.5553 69.879 12.4483 70.1851C12.2549 70.7379 12.2208 71.2815 12.3458 71.816C12.472 72.3474 12.7594 72.8335 13.2082 73.2743C13.658 73.7121 14.2702 74.0664 15.0448 74.3373C15.8256 74.6103 16.5283 74.7159 17.1529 74.6539C17.7786 74.5887 18.3053 74.3856 18.7331 74.0445C19.1608 73.7033 19.4703 73.2595 19.6614 72.7129C19.7674 72.4099 19.8273 72.1084 19.8411 71.8083C19.8529 71.5039 19.8163 71.2125 19.7315 70.9339C19.6466 70.6554 19.5138 70.3986 19.3331 70.1637C19.1503 69.9245 18.9163 69.7217 18.631 69.5553L19.1468 68.0952C19.5911 68.3383 19.9723 68.6416 20.2903 69.0052C20.6063 69.3645 20.8468 69.7694 21.0118 70.2197C21.1748 70.6658 21.2563 71.1394 21.2562 71.6407C21.2562 72.1419 21.1639 72.6565 20.9793 73.1843C20.6888 74.0151 20.2331 74.6865 19.6124 75.1985C18.9886 75.7094 18.2425 76.0234 17.3744 76.1404C16.5073 76.2543 15.5631 76.1327 14.5418 75.7755C13.5173 75.4173 12.7037 74.9224 12.1008 74.2909C11.4947 73.6584 11.1086 72.9484 10.9422 72.1612C10.7727 71.3728 10.8327 70.5648 11.1222 69.7371C11.3002 69.228 11.5396 68.7789 11.8404 68.3899C12.1392 67.9966 12.4909 67.6727 12.8954 67.418C13.2968 67.1623 13.7394 66.9894 14.2231 66.8991C14.7037 66.8078 15.2159 66.8117 15.7596 66.9107Z" fill="white"></path> <path d="M22.769 67.9127L13.6264 63.4707L14.2966 62.0913L18.2697 64.0216L20.4842 59.4637L16.5111 57.5334L17.1835 56.1495L26.3261 60.5915L25.6537 61.9754L21.6672 60.0385L19.4527 64.5964L23.4392 66.5333L22.769 67.9127Z" fill="white"></path> <path d="M22.0019 48.2638L22.8279 46.9657L28.4683 50.5546C29.0685 50.9364 29.5106 51.4158 29.7946 51.9926C30.0759 52.5676 30.1865 53.1949 30.1267 53.8745C30.0641 54.5524 29.8143 55.2347 29.3773 55.9214C28.9421 56.6053 28.4308 57.1193 27.8434 57.4632C27.2531 57.8053 26.638 57.9708 25.998 57.9597C25.3552 57.9468 24.7337 57.7494 24.1335 57.3675L18.493 53.7787L19.3163 52.4847L24.8521 56.007C25.2401 56.2539 25.639 56.3881 26.0489 56.4096C26.4605 56.4284 26.8532 56.3351 27.227 56.1298C27.598 55.9227 27.9212 55.6028 28.1965 55.1701C28.4736 54.7346 28.6273 54.3049 28.6577 53.8811C28.6871 53.4527 28.6044 53.0589 28.4095 52.6996C28.2163 52.3375 27.9257 52.0329 27.5377 51.7861L22.0019 48.2638Z" fill="white"></path> <path d="M32.3967 51.0381L24.4694 44.6759L26.7372 41.8503C27.2301 41.2361 27.7449 40.8114 28.2817 40.5761C28.8205 40.3382 29.3578 40.2688 29.8935 40.3678C30.4266 40.4647 30.937 40.7089 31.4247 41.1004C31.9099 41.4897 32.2551 41.9344 32.4605 42.4344C32.6654 42.9298 32.7062 43.4631 32.5828 44.0344C32.4615 44.6032 32.1544 45.1946 31.6615 45.8088L29.9436 47.9493L28.914 47.123L30.5449 45.0908C30.8556 44.7038 31.0528 44.3444 31.1365 44.0128C31.2223 43.6786 31.2049 43.3698 31.0845 43.0864C30.964 42.8031 30.7554 42.5423 30.4586 42.3041C30.1593 42.0639 29.8533 41.9138 29.5408 41.8539C29.2303 41.7914 28.9187 41.8361 28.6058 41.9881C28.2924 42.1354 27.9773 42.4065 27.6604 42.8013L26.4551 44.3031L33.3566 49.8421L32.3967 51.0381ZM31.9608 44.2544L37.1093 45.1662L36.0158 46.5287L30.8984 45.5782L31.9608 44.2544Z" fill="white"></path> <path d="M38.2732 43.8871L31.0338 36.7521L35.5071 32.2133L36.4474 33.14L33.0506 36.5866L35.2564 38.7605L38.4197 35.5508L39.3565 36.474L36.1931 39.6837L38.4095 41.8681L41.8481 38.3792L42.7884 39.3059L38.2732 43.8871Z" fill="white"></path> <path d="M50.2228 33.9515L50.8955 33.4508L48.3128 30.3554L51.6813 32.5872L52.1032 31.8899L48.5266 29.9872L52.5041 30.79L52.6078 29.9462L48.6063 29.5794L52.5561 28.8L52.3579 27.9719L48.4848 29.182L51.853 26.919L51.3523 26.2463L48.2345 28.8457L50.4886 25.4605L49.7689 25.0553L47.8887 28.6152L48.6691 24.6544L47.8477 24.534L47.4584 28.5521L46.679 24.6024L45.8733 24.7839L47.0444 28.6513L44.8205 25.2888L44.1478 25.7895L46.7247 28.924L43.3619 26.6531L42.9344 27.3895L46.4942 29.2698L42.5558 28.4727L42.413 29.3108L46.4536 29.6833L42.4814 30.4795L42.6854 31.2685L46.5527 30.0974L43.1903 32.3213L43.691 32.994L46.8031 30.4338L44.5546 33.7799L45.2686 34.2241L47.1713 30.6475L46.3518 34.6027L47.2122 34.7288L47.5624 30.7049L48.3585 34.6771L49.1699 34.4564L47.9765 30.6058L50.2228 33.9515Z" fill="#EFEFEF"></path> <path d="M61.2106 26.1048L58.2892 27.6191L53.6115 18.5949L56.6254 17.0326C57.5096 16.5742 58.3627 16.3613 59.1845 16.3937C60.0048 16.4232 60.7582 16.6867 61.4447 17.1843C62.1326 17.6775 62.7194 18.3926 63.2052 19.3297C63.6925 20.2697 63.9393 21.1666 63.9459 22.0204C63.9553 22.8727 63.7313 23.6485 63.2739 24.3477C62.8149 25.044 62.1271 25.6297 61.2106 26.1048ZM59.0341 25.7236L60.519 24.9539C61.2064 24.5976 61.7108 24.1722 62.0321 23.6777C62.3519 23.1802 62.497 22.6261 62.4674 22.0153C62.4362 21.4016 62.2357 20.7378 61.8656 20.024C61.4987 19.3161 61.0742 18.7739 60.5922 18.3977C60.1131 18.0199 59.5856 17.8182 59.0095 17.7925C58.4335 17.7669 57.8164 17.9246 57.1584 18.2657L55.5897 19.0788L59.0341 25.7236Z" fill="white"></path> <path d="M73.866 15.1642C74.2435 16.1818 74.3818 17.1256 74.2811 17.9958C74.1793 18.863 73.8773 19.6138 73.3751 20.2483C72.8748 20.8785 72.2136 21.3461 71.3915 21.651C70.5663 21.9571 69.7571 22.035 68.9637 21.8846C68.1723 21.73 67.4547 21.3557 66.8108 20.7616C66.167 20.1676 65.6569 19.3634 65.2806 18.349C64.9032 17.3314 64.7653 16.3891 64.8672 15.522C64.9679 14.6518 65.2684 13.9016 65.7686 13.2713C66.2708 12.6368 66.9345 12.1665 67.7597 11.8604C68.5818 11.5555 69.3886 11.4803 70.18 11.6349C70.9733 11.7853 71.6919 12.1575 72.3358 12.7515C72.9785 13.3425 73.4886 14.1467 73.866 15.1642ZM72.4421 15.6924C72.1544 14.9169 71.7865 14.3105 71.3385 13.8732C70.8923 13.4317 70.4015 13.155 69.8659 13.0431C69.3323 12.9269 68.7925 12.9701 68.2465 13.1727C67.6974 13.3764 67.2585 13.6962 66.9297 14.1323C66.5997 14.5652 66.4081 15.0951 66.3547 15.7219C66.3033 16.3444 66.4215 17.0435 66.7092 17.819C66.9969 18.5946 67.3638 19.2031 67.8099 19.6446C68.2579 20.0819 68.7488 20.3586 69.2824 20.4748C69.8149 20.5878 70.3557 20.5425 70.9048 20.3388C71.4507 20.1363 71.8887 19.8185 72.2187 19.3856C72.5506 18.9484 72.7422 18.4185 72.7936 17.796C72.8469 17.1692 72.7298 16.468 72.4421 15.6924Z" fill="white"></path> <path d="M79.1577 18.9093L74.2331 9.58113L75.809 9.23669L79.4245 16.5038L79.5166 16.4837L79.8479 8.35385L81.4092 8.01258L85.1034 15.2676L85.1955 15.2475L85.4433 7.1308L87.024 6.7853L86.4356 17.3185L84.9277 17.6481L81.2121 10.667L81.1345 10.6839L80.6705 18.5786L79.1577 18.9093Z" fill="white"></path> <path d="M97.2963 5.9475L98.0797 16.0818L96.6743 16.1905L90.9485 9.15615L90.8545 9.16342L91.429 16.5959L89.9 16.7141L89.1166 6.57979L90.5318 6.47039L96.2634 13.5142L96.3574 13.507L95.7821 6.06455L97.2963 5.9475Z" fill="white"></path> <path d="M100.99 16.032L101.304 5.87225L102.837 5.9196L102.564 14.7597L107.168 14.9019L107.127 16.2215L100.99 16.032Z" fill="white"></path> <path d="M118.204 12.4641C118.054 13.539 117.729 14.4356 117.228 15.1541C116.727 15.8693 116.105 16.3872 115.362 16.7078C114.623 17.0256 113.819 17.1239 112.95 17.0027C112.079 16.881 111.329 16.5659 110.702 16.0574C110.078 15.5461 109.624 14.8763 109.339 14.0481C109.053 13.2198 108.986 12.2699 109.135 11.1983C109.285 10.1234 109.611 9.2284 110.111 8.51318C110.612 7.79469 111.233 7.27657 111.972 6.9588C112.715 6.63821 113.522 6.53875 114.394 6.66041C115.262 6.78162 116.008 7.09788 116.632 7.6092C117.259 8.11769 117.715 8.78607 118.001 9.61433C118.286 10.4393 118.354 11.3892 118.204 12.4641ZM116.7 12.2542C116.815 11.4349 116.778 10.7266 116.591 10.1292C116.407 9.52892 116.106 9.05259 115.688 8.70018C115.273 8.34495 114.777 8.12709 114.2 8.04659C113.62 7.96563 113.082 8.03919 112.586 8.26727C112.09 8.49207 111.67 8.86777 111.326 9.39437C110.986 9.91815 110.759 10.5897 110.644 11.4089C110.53 12.2282 110.564 12.9379 110.748 13.5382C110.935 14.1356 111.236 14.6119 111.651 14.9671C112.066 15.3191 112.564 15.5355 113.144 15.6165C113.721 15.697 114.257 15.6248 114.753 15.4C115.252 15.1724 115.672 14.7967 116.012 14.2729C116.357 13.7463 116.586 13.0734 116.7 12.2542Z" fill="white"></path> <path d="M119.957 18.0592L118.381 17.6513L124.469 8.72741L126.184 9.17136L127.179 19.9282L125.603 19.5203L124.905 10.7474L124.828 10.7275L119.957 18.0592ZM121.219 14.2741L126.331 15.5972L126.008 16.8464L120.895 15.5233L121.219 14.2741Z" fill="white"></path> <path d="M130.594 21.2074L127.517 20.0398L131.124 10.5366L134.298 11.7411C135.229 12.0945 135.956 12.5883 136.48 13.2223C137.005 13.8533 137.311 14.5905 137.398 15.434C137.489 16.2755 137.347 17.1896 136.973 18.1765C136.597 19.1664 136.093 19.9484 135.461 20.5226C134.832 21.0979 134.105 21.4482 133.279 21.5735C132.454 21.6957 131.559 21.5737 130.594 21.2074ZM129.426 19.3311L130.99 19.9246C131.714 20.1993 132.367 20.2915 132.95 20.2013C133.534 20.1079 134.044 19.8466 134.479 19.4173C134.916 18.9849 135.277 18.3928 135.562 17.6411C135.845 16.8956 135.966 16.2178 135.925 15.6076C135.887 14.9987 135.686 14.471 135.321 14.0246C134.956 13.5782 134.427 13.2235 133.734 12.9606L132.082 12.3336L129.426 19.3311Z" fill="white"></path> <path d="M140.092 25.2578L145.1 16.4124L148.339 18.2464C148.967 18.6017 149.428 18.9996 149.722 19.4401C150.018 19.8776 150.169 20.3299 150.174 20.7969C150.182 21.261 150.061 21.7119 149.814 22.1496C149.605 22.5182 149.361 22.7908 149.082 22.9676C148.805 23.1415 148.51 23.2403 148.196 23.2641C147.886 23.2867 147.577 23.2559 147.267 23.1718L147.218 23.2582C147.504 23.4389 147.736 23.6961 147.916 24.0298C148.101 24.3624 148.195 24.7406 148.198 25.1645C148.201 25.5885 148.073 26.0293 147.814 26.4872C147.558 26.9392 147.222 27.2849 146.805 27.5242C146.393 27.7622 145.907 27.8616 145.347 27.8224C144.789 27.7803 144.168 27.5652 143.482 27.1773L140.092 25.2578ZM142.074 24.8688L144.001 25.9594C144.64 26.3213 145.168 26.4567 145.584 26.3655C146.001 26.2744 146.315 26.0431 146.525 25.6717C146.683 25.3924 146.757 25.0962 146.748 24.7831C146.739 24.47 146.643 24.1701 146.459 23.8836C146.278 23.5987 146.009 23.3551 145.652 23.153L143.679 22.0355L142.074 24.8688ZM144.268 20.9946L146.056 22.007C146.355 22.1765 146.657 22.2713 146.961 22.2915C147.268 22.3132 147.551 22.2604 147.81 22.133C148.073 22.0043 148.285 21.7974 148.446 21.5124C148.653 21.1467 148.699 20.7675 148.583 20.3748C148.467 19.9821 148.144 19.6357 147.614 19.3358L145.791 18.3039L144.268 20.9946Z" fill="white"></path> <path d="M148.011 29.8464L153.93 21.5831L156.876 23.6929C157.516 24.1515 157.968 24.6423 158.232 25.1654C158.499 25.6904 158.598 26.2231 158.528 26.7634C158.461 27.301 158.245 27.824 157.881 28.3324C157.519 28.8381 157.093 29.2072 156.605 29.4396C156.122 29.6713 155.592 29.7412 155.014 29.6492C154.44 29.5592 153.833 29.2849 153.192 28.8264L150.961 27.2281L151.73 26.1548L153.848 27.6722C154.252 27.9612 154.621 28.1384 154.957 28.2039C155.295 28.2713 155.603 28.2371 155.879 28.1013C156.155 27.9655 156.404 27.7429 156.626 27.4336C156.849 27.1215 156.983 26.8079 157.025 26.4925C157.071 26.1791 157.009 25.8703 156.84 25.5662C156.676 25.2614 156.388 24.9616 155.977 24.6668L154.411 23.5454L149.258 30.7395L148.011 29.8464ZM154.761 29.0402L154.132 34.2308L152.712 33.2135L153.381 28.0518L154.761 29.0402Z" fill="white"></path> <path d="M165.026 37.0683C164.299 37.8737 163.526 38.4332 162.708 38.7466C161.892 39.0575 161.087 39.1372 160.292 38.9855C159.502 38.8337 158.781 38.4639 158.131 37.8762C157.478 37.2863 157.034 36.6049 156.8 35.832C156.571 35.0589 156.571 34.2495 156.8 33.4039C157.028 32.5582 157.505 31.7339 158.23 30.9309C158.958 30.1255 159.729 29.5673 160.545 29.2563C161.363 28.9429 162.167 28.8622 162.958 29.014C163.752 29.1657 164.476 29.5364 165.13 30.1263C165.78 30.714 166.22 31.3944 166.449 32.1675C166.683 32.9404 166.686 33.7497 166.457 34.5954C166.231 35.4385 165.754 36.2629 165.026 37.0683ZM163.899 36.0504C164.454 35.4365 164.821 34.8298 165.001 34.2302C165.186 33.6304 165.204 33.0673 165.056 32.5407C164.912 32.0139 164.624 31.5554 164.192 31.165C163.757 30.7725 163.27 30.5314 162.732 30.4417C162.195 30.3495 161.637 30.4248 161.056 30.6676C160.481 30.9101 159.916 31.3383 159.361 31.9522C158.807 32.5661 158.437 33.1729 158.252 33.7727C158.072 34.3722 158.054 34.9354 158.198 35.4622C158.344 35.9865 158.634 36.445 159.069 36.8375C159.501 37.2278 159.985 37.469 160.522 37.5612C161.063 37.6531 161.621 37.5778 162.197 37.3353C162.777 37.0926 163.345 36.6643 163.899 36.0504Z" fill="white"></path> <path d="M173.713 44.0985L172.696 42.9306C172.907 42.6684 173.053 42.3936 173.137 42.1062C173.22 41.8188 173.25 41.5289 173.228 41.2366C173.206 40.9443 173.133 40.659 173.01 40.3807C172.888 40.1049 172.721 39.8448 172.508 39.6002C172.123 39.1585 171.668 38.8596 171.142 38.7036C170.617 38.5501 170.053 38.5591 169.448 38.7307C168.845 38.9047 168.234 39.2612 167.615 39.8C166.991 40.3432 166.551 40.9014 166.296 41.4747C166.043 42.0506 165.958 42.6088 166.043 43.1493C166.127 43.6899 166.36 44.1785 166.74 44.6153C166.951 44.8573 167.183 45.0587 167.437 45.2193C167.695 45.3802 167.967 45.4928 168.251 45.557C168.535 45.6212 168.824 45.633 169.117 45.5923C169.416 45.552 169.708 45.4491 169.993 45.2836L171.007 46.4547C170.575 46.7204 170.123 46.9014 169.65 46.9976C169.181 47.0942 168.71 47.1027 168.237 47.023C167.769 46.9438 167.317 46.78 166.882 46.5318C166.446 46.2835 166.045 45.9486 165.678 45.5268C165.1 44.863 164.742 44.1347 164.605 43.3419C164.47 42.5469 164.566 41.7433 164.895 40.9311C165.225 40.1213 165.798 39.3613 166.614 38.6508C167.433 37.9382 168.266 37.4763 169.113 37.2652C169.962 37.0519 170.77 37.0679 171.537 37.3133C172.306 37.5564 172.978 38.0086 173.554 38.6699C173.908 39.0767 174.179 39.5071 174.368 39.9611C174.562 40.4154 174.67 40.8813 174.69 41.3588C174.714 41.8342 174.645 42.3043 174.484 42.7693C174.325 43.232 174.068 43.6751 173.713 44.0985Z" fill="white"></path> <path d="M169.261 49.5248L177.631 43.7577L178.501 45.0206L174.864 47.5268L177.739 51.6996L181.376 49.1935L182.249 50.4604L173.879 56.2275L173.006 54.9605L176.656 52.4459L173.781 48.273L170.131 50.7877L169.261 49.5248Z" fill="white"></path> <path d="M186.991 58.995L187.709 60.3557L181.796 63.4762C181.167 63.8082 180.532 63.9547 179.89 63.9155C179.251 63.8748 178.651 63.66 178.091 63.2712C177.533 62.8809 177.064 62.3258 176.684 61.6059C176.306 60.889 176.113 60.1902 176.105 59.5095C176.101 58.8273 176.262 58.211 176.589 57.6607C176.919 57.1087 177.398 56.6667 178.027 56.3347L183.94 53.2143L184.655 54.5706L178.853 57.6331C178.446 57.8478 178.132 58.1278 177.91 58.4731C177.69 58.8213 177.576 59.2086 177.569 59.635C177.565 60.0599 177.683 60.4991 177.922 60.9527C178.163 61.4092 178.46 61.7556 178.813 61.9921C179.171 62.2299 179.554 62.3532 179.962 62.362C180.373 62.3737 180.781 62.2722 181.188 62.0576L186.991 58.995Z" fill="white"></path> <path d="M179.49 66.8063L188.952 63.0931L190.275 66.4658C190.563 67.1988 190.675 67.8567 190.613 68.4394C190.551 69.0252 190.344 69.5258 189.992 69.9413C189.642 70.3556 189.177 70.677 188.595 70.9055C188.015 71.1327 187.458 71.2111 186.922 71.1406C186.39 71.072 185.907 70.8421 185.473 70.4509C185.04 70.0629 184.68 69.5023 184.392 68.7692L183.389 66.2143L184.618 65.732L185.57 68.1576C185.751 68.6196 185.965 68.9694 186.211 69.2069C186.458 69.4476 186.735 69.5861 187.041 69.6225C187.346 69.6589 187.676 69.6076 188.031 69.4686C188.388 69.3284 188.67 69.1376 188.878 68.8963C189.086 68.658 189.203 68.3654 189.226 68.0184C189.254 67.6732 189.176 67.265 188.991 66.7938L188.288 65.0012L180.05 68.2339L179.49 66.8063ZM185.592 69.802L182.24 73.815L181.602 72.1887L184.972 68.2219L185.592 69.802Z" fill="white"></path> <path d="M182.699 75.2735L192.489 72.5405L194.202 78.6785L192.931 79.0335L191.63 74.3726L188.647 75.2053L189.858 79.5459L188.591 79.8996L187.38 75.5589L184.382 76.3957L185.7 81.1139L184.428 81.4689L182.699 75.2735Z" fill="white"></path> <path d="M185.34 90.4562L185.44 91.2888L189.41 90.587L185.799 92.4L186.194 93.1127L189.623 90.9555L186.949 94.0074L187.629 94.5169L189.937 91.2275L188.65 95.042L189.467 95.2817L190.342 91.3196L190.631 95.3672L191.464 95.2672L190.759 91.2696L192.575 94.9086L193.284 94.4856L191.131 91.0842L194.179 93.7307L194.692 93.0779L191.399 90.7423L195.214 92.0299L195.457 91.2406L191.519 90.3338L195.542 90.076L195.442 89.2434L191.441 89.9208L195.084 88.1322L194.657 87.3951L191.256 89.5489L193.906 86.5281L193.25 85.9875L190.917 89.308L192.202 85.4658L191.416 85.2504L190.509 89.1881L190.251 85.165L189.418 85.265L190.093 89.2381L188.307 85.6236L187.567 86.0222L189.724 89.4513L186.7 86.7738L186.163 87.4576L189.48 89.7621L185.637 88.4779L185.425 89.2916L189.36 90.1707L185.34 90.4562Z" fill="#EFEFEF"></path> </svg> 