<?xml version="1.0" encoding="UTF-8"?> <!-- Generator: Adobe Illustrator 24.1.2, SVG Export Plug-In . SVG Version: 6.00 Build 0) --> <svg xmlns="http://www.w3.org/2000/svg" xmlns:xlink="http://www.w3.org/1999/xlink" id="Layer_1" x="0px" y="0px" viewBox="0 0 428 249" style="enable-background:new 0 0 428 249;" xml:space="preserve"> <style type="text/css"> .st0{fill:#C29F3F;} </style> <g> <g> <path class="st0" d="M109.6,7.5h-1.3c-0.8,0-1.2,0.2-1.5,0.8l-3.8,9.6l5,11.8l12.6,29.6l0.4,0.8l1.4,3.3l1.8,4.1l0.1,0.2 c0.1,0.4,0.3,0.7,0.4,1l0.6,1.4c0.9,2.1,1.7,3.9,2.4,5.7l0.4,1l1.8,4.1c-3.6-1.2-9.4-1.9-17.3-2.3c-8-0.4-13.4-1.4-16-2.8 C90,72,88.4,64.4,91.9,53.2c0-0.1,0.1-0.2,0.1-0.4l0.1-0.2c0,0,0.3-0.9,0.4-1.2l0.3-0.8h-2.9l-7,17.6L81.3,72 c-0.7,1.9-1.5,3.8-2.3,5.7l-9.3,23.1l0.9,0c0.2,0,0.5,0,0.7,0c0.2,0,1.6,0,1.6,0L84.3,72c1.3,2.2,3.3,4.7,5.6,6.3 c3.7,2.5,9.6,4,17.7,4.4c10.5,0.5,18.1,2.7,22.5,6.3c2.6,2.2,5.3,5.7,7.9,10.5l0,0.1l0,0.1c0.1,0.1,0.2,0.3,0.3,0.5l0.1,0.2 l0.2,0.3l0.6,0c0.8,0,1.6,0,2.2,0c0.8,0,1.5,0,2.1,0c0.3,0,0.6,0,0.8,0c0.2,0,0.6,0,0.9,0c0.6,0,1.3,0,2.1,0c0.7,0,1.4,0,2.1,0 l0.9,0L111.4,8.2C111.1,7.6,110.2,7.5,109.6,7.5"></path> <path class="st0" d="M255,7.5h-1.3c-0.8,0-1.2,0.2-1.5,0.8l-3.8,9.6l5,11.8l12.6,29.6l0.4,0.8l1.4,3.3l1.8,4.1l0.1,0.2 c0.1,0.4,0.3,0.7,0.4,1l0.6,1.4c0.9,2.1,1.7,3.9,2.4,5.7l0.4,1l1.8,4.1c-3.6-1.2-9.4-1.9-17.3-2.3c-8-0.4-13.4-1.4-16-2.8 c-6.7-3.9-8.3-11.5-4.8-22.7c0-0.1,0.1-0.2,0.1-0.4l0.1-0.2c0,0,0.3-0.9,0.4-1.2l0.3-0.8h-2.9l-7,17.6l-1.5,3.7 c-0.7,1.9-1.5,3.8-2.3,5.7l-9.3,23.1l0.9,0c0.2,0,0.5,0,0.7,0c0.2,0,1.6,0,1.6,0L229.7,72c1.3,2.2,3.3,4.7,5.6,6.3 c3.7,2.5,9.6,4,17.7,4.4c10.5,0.5,18.1,2.7,22.5,6.3c2.6,2.2,5.3,5.7,7.9,10.5l0,0.1l0,0.1c0.1,0.1,0.2,0.3,0.3,0.5l0.1,0.2 l0.2,0.3l0.6,0c0.8,0,1.6,0,2.2,0c0.8,0,1.5,0,2.1,0c0.3,0,0.6,0,0.8,0c0.2,0,0.6,0,0.9,0c0.6,0,1.3,0,2.1,0c0.7,0,1.4,0,2.1,0 l0.9,0L256.9,8.2C256.5,7.6,255.7,7.5,255,7.5"></path> <path class="st0" d="M176.1,64L166,40.5l0,0c0,0,0-0.1,0-0.1l-1-2.3l0,0c0-0.1-0.1-0.2-0.1-0.2l-13-30.2l-0.6,0 c-0.8,0-1.6,0-2.2,0c-0.8,0-1.5,0-2.1,0c-0.3,0-0.6,0-0.8,0c-0.2,0-0.6,0-0.9,0c-0.6,0-1.3,0-2.1,0c-0.7,0-1.4,0-2.1,0l-0.9,0 l38.8,92.6c0.3,0.6,1.1,0.7,1.8,0.7h1.3c0.8,0,1.2-0.2,1.5-0.8l3.8-9.6l-5-11.8L176.1,64z"></path> <path class="st0" d="M219.7,7.5c-0.2,0-0.5,0-0.7,0c-0.2,0-1.6,0-1.6,0l-11.4,28.7c0,0,0,0,0,0l-21.4,53.2l2.7,1l20.2-50.5 l1.5-3.7c0.7-1.9,1.5-3.8,2.3-5.7l9.3-23.1L219.7,7.5z"></path> <path class="st0" d="M332.9,92.2h-9.8l-3.7,8.8h-2.3l10.2-24.4h3.5L341,101h-4.4L332.9,92.2z M332.1,90.2l-4.1-9.8l-4.1,9.8H332.1 z"></path> <polygon class="st0" points="347.8,78.5 338.8,78.5 338.8,76.6 360.9,76.6 360.9,78.5 351.9,78.5 351.9,101 347.8,101 "></polygon> <path class="st0" d="M132.9,151.1c0.7-1.4,1.2-2.8,1.5-4.5c0.1-0.4,0.1-0.7,0.2-1.2c0.2-1.1,0.3-2.3,0.3-3.5c0-0.2,0-0.5,0-0.7 c0,0,0-0.4,0-0.5c0-0.2,0-0.5,0-0.7l0-0.5c0-0.3-0.1-0.6-0.1-0.9c0-0.1,0-0.1,0-0.3c0-0.2-0.1-0.4-0.1-0.6l-0.1-0.5 c-0.3-1.6-0.8-3.1-1.5-4.4c-1.3-2.7-3.2-5-5.5-6.8c-2.3-1.9-5.1-3.3-8.3-4.3c-3.2-1-6.7-1.5-10.4-1.5H67.1v78h9.8v-34.6h32 c3.7,0,7.1-0.5,10.4-1.5c3.2-1,6-2.4,8.3-4.3C129.7,156,131.6,153.7,132.9,151.1 M122.8,149.1c-0.9,2.4-2.2,4.4-3.8,6.1 c-1.6,1.7-3.5,3-5.6,3.9c-2.1,0.9-4.4,1.4-6.8,1.4H76.8v-37h29.8c2.4,0,4.7,0.5,6.8,1.4c2.1,0.9,4,2.2,5.6,3.9 c1.6,1.7,2.8,3.7,3.8,6.1c0.8,2.1,1.3,4.5,1.4,7.2C124.1,144.5,123.6,147,122.8,149.1 M351.3,120.2l-31,68.1l-31-68.1h-9.7v78h3 v-63.8h3.9l30.7,63.8h6.1l30.8-63.8h3.9v63.8h3v-78H351.3z M228,120.2h-9.8v78h52.4v-2.4H228V120.2z M161.9,120.2l-33.1,78h3.4 l11.5-27h40.4l11.1,27h9.7l-32.3-78H161.9z M144.7,168.8l15.8-37l7.3,0l15.3,37H144.7z"></path> <path class="st0" d="M195,243.4c3.2-2.8,4.5-3.6,4.5-7.8v-19.3h3v19.1c0,3.3-1,4.6-3.6,6.5c-0.8,0.6-2.1,1.5-3.4,2.3L195,243.4z"></path> <path class="st0" d="M209,230.7v-14.5h2.9v14.3c0,5.4,2.2,7.9,7.2,7.9c5.4,0,7.4-3.1,7.4-8.2v-14h1.6v14.2c0,6.4-3.2,9.4-9.7,9.4 C212.4,239.9,209,237,209,230.7"></path> <polygon class="st0" points="236,239.9 234.4,239.9 234.4,216.3 237.5,216.3 246.7,231.5 255.8,216.3 258.6,216.3 258.6,239.9 255.6,239.9 255.6,219.8 246.4,234.9 245.2,234.9 236,219.8 "></polygon> <polygon class="st0" points="265.2,216.3 280.6,216.3 280.6,217.7 268.2,217.7 268.2,226.8 278.9,226.8 278.9,228.3 268.2,228.3 268.2,238.5 280.6,238.5 280.6,239.9 265.2,239.9 "></polygon> <rect x="285.7" y="216.3" class="st0" width="3" height="23.7"></rect> <path class="st0" d="M295.3,239.9v-23.7h6.4c5.6,0,9.6,1.3,9.6,5.9c0,3.6-2.7,5.5-6.9,6l10.7,11.8h-3.9L301,228.6h-2.7v11.4H295.3 z M301.4,227.2c4,0,6.6-1.2,6.6-4.8c0-3.6-2.6-4.8-6.7-4.8h-3v9.6H301.4z"></path> <path class="st0" d="M330.7,231.1h-10.1l-3.7,8.8h-1.7l9.9-23.7h2.5l10,23.7h-3.2L330.7,231.1z M330,229.6l-4.4-10.5l-4.4,10.5 H330z"></path> <polygon class="st0" points="341.2,216.3 344.2,216.3 344.2,226.8 357.9,226.8 357.9,216.3 360.9,216.3 360.9,239.9 357.9,239.9 357.9,228.3 344.2,228.3 344.2,239.9 341.2,239.9 "></polygon> <path class="st0" d="M332.9,92.2h-9.8l-3.7,8.8h-2.3l10.2-24.4h3.5L341,101h-4.4L332.9,92.2z M332.1,90.2l-4.1-9.8l-4.1,9.8H332.1 z"></path> <polygon class="st0" points="347.8,78.5 338.8,78.5 338.8,76.6 360.9,76.6 360.9,78.5 351.9,78.5 351.9,101 347.8,101 "></polygon> <path class="st0" d="M132.9,151.1c0.7-1.4,1.2-2.8,1.5-4.5c0.1-0.4,0.1-0.7,0.2-1.2c0.2-1.1,0.3-2.3,0.3-3.5c0-0.2,0-0.5,0-0.7 c0,0,0-0.4,0-0.5c0-0.2,0-0.5,0-0.7l0-0.5c0-0.3-0.1-0.6-0.1-0.9c0-0.1,0-0.1,0-0.3c0-0.2-0.1-0.4-0.1-0.6l-0.1-0.5 c-0.3-1.6-0.8-3.1-1.5-4.4c-1.3-2.7-3.2-5-5.5-6.8c-2.3-1.9-5.1-3.3-8.3-4.3c-3.2-1-6.7-1.5-10.4-1.5H67.1v78h9.8v-34.6h32 c3.7,0,7.1-0.5,10.4-1.5c3.2-1,6-2.4,8.3-4.3C129.7,156,131.6,153.7,132.9,151.1 M122.8,149.1c-0.9,2.4-2.2,4.4-3.8,6.1 c-1.6,1.7-3.5,3-5.6,3.9c-2.1,0.9-4.4,1.4-6.8,1.4H76.8v-37h29.8c2.4,0,4.7,0.5,6.8,1.4c2.1,0.9,4,2.2,5.6,3.9 c1.6,1.7,2.8,3.7,3.8,6.1c0.8,2.1,1.3,4.5,1.4,7.2C124.1,144.5,123.6,147,122.8,149.1 M161.9,120.2l-33.1,78h3.4l11.5-27h40.4 l11.1,27h9.7l-32.3-78H161.9z M144.7,168.8l15.8-37l7.3,0l15.3,37H144.7z M351.3,120.2l-31,68.1l-31-68.1h-9.7v78h3v-63.8h3.9 l30.7,63.8h6.1l30.8-63.8h3.9v63.8h3v-78H351.3z M228,120.2h-9.8v78h52.4v-2.4H228V120.2z"></path> </g> </g> </svg> 